<?xml version="1.0" encoding="UTF-8" standalone="no"?><!-- Generator: Gravit.io --><svg xmlns="http://www.w3.org/2000/svg" xmlns:xlink="http://www.w3.org/1999/xlink" style="isolation:isolate" viewBox="-30 -30 470 470" width="470pt" height="470pt"><defs><clipPath id="_clipPath_5DXoNXTn8Nqv4MV4DtV0pf0FfsClm5rV"><rect x="-30" y="-30" width="470" height="470"/></clipPath></defs><g clip-path="url(#_clipPath_5DXoNXTn8Nqv4MV4DtV0pf0FfsClm5rV)"><path d=" M -30 -30 L 440 -30 L 440 440 L -30 440 L -30 -30 Z " fill="rgb(255,255,255)"/><path d=" M 165 205 L 140 105 L 90 105 L 140 305 L 140 305 L 190 305 L 190 305 L 240 105 L 190 105 L 165 205 Z " fill="rgb(255,123,0)"/><path d=" M 250 105 L 325 105 C 366.394 105 400 138.606 400 180 L 400 180 C 400 221.394 366.394 255 325 255 L 300 255 L 300 305 L 250 305 L 250 105 Z  M 300 155 L 325 155 C 338.798 155 350 166.202 350 180 L 350 180 C 350 193.798 338.798 205 325 205 L 300 205 L 300 155 Z " fill-rule="evenodd" fill="rgb(255,123,0)"/><path d=" M 165 440 L -30 440 L -30 -30 L 165 -30 L 165 440 Z " fill="rgb(255,123,0)"/><path d=" M 30 105 L 80 105 L 80 305 L 30 305 L 30 105 Z " fill="rgb(255,255,255)"/><path d=" M 165 205 L 140 105 L 90 105 L 140 305 L 140 305 L 165 205 Z " fill="rgb(255,255,255)"/></g></svg>