<?xml version="1.0" encoding="UTF-8" standalone="no"?><!-- Generator: Gravit.io --><svg xmlns="http://www.w3.org/2000/svg" xmlns:xlink="http://www.w3.org/1999/xlink" style="isolation:isolate" viewBox="176 -12 100 142" width="100pt" height="142pt"><defs><clipPath id="_clipPath_Ta74VQYTsZo82ACrjI7qdERaPdSt3WIz"><rect x="176" y="-12" width="100" height="142"/></clipPath></defs><g clip-path="url(#_clipPath_Ta74VQYTsZo82ACrjI7qdERaPdSt3WIz)"><rect x="176" y="-12" width="100" height="142" style="fill:rgb(13,13,13)" fill-opacity="0"/><path d=" M 186 -12 L 246 -12 L 276 18 L 276 120 C 276 125.519 271.519 130 266 130 L 186 130 C 180.481 130 176 125.519 176 120 L 176 -2 C 176 -7.519 180.481 -12 186 -12 Z " fill="rgb(255,255,255)"/><path d=" M 246 -12 L 246 8 C 246 13.519 250.481 18 256 18 L 276 18 L 246 -12 Z " fill="rgb(204,204,204)"/><path d=" M 195.776 42.345 L 195.776 42.345 L 195.776 42.345 Q 195.776 47.096 197.323 49.42 L 197.323 49.42 L 197.323 49.42 Q 198.869 51.744 201.945 51.744 L 201.945 51.744 L 201.945 51.744 Q 203.449 51.744 204.902 51.309 L 204.902 51.309 L 204.902 51.309 Q 206.354 50.873 207.875 49.813 L 207.875 49.813 L 209.704 54.598 L 209.704 54.598 Q 209.191 55.043 208.345 55.419 L 208.345 55.419 L 208.345 55.419 Q 207.5 55.795 206.414 56.068 L 206.414 56.068 L 206.414 56.068 Q 205.329 56.341 204.03 56.495 L 204.03 56.495 L 204.03 56.495 Q 202.731 56.649 201.296 56.649 L 201.296 56.649 L 201.296 56.649 Q 198.442 56.649 196.169 55.692 L 196.169 55.692 L 196.169 55.692 Q 193.896 54.735 192.307 52.889 L 192.307 52.889 L 192.307 52.889 Q 190.717 51.044 189.863 48.343 L 189.863 48.343 L 189.863 48.343 Q 189.008 45.643 189.008 42.157 L 189.008 42.157 L 189.008 42.157 Q 189.008 38.602 189.854 35.919 L 189.854 35.919 L 189.854 35.919 Q 190.7 33.236 192.29 31.442 L 192.29 31.442 L 192.29 31.442 Q 193.879 29.647 196.152 28.75 L 196.152 28.75 L 196.152 28.75 Q 198.425 27.853 201.279 27.853 L 201.279 27.853 L 201.279 27.853 Q 202.27 27.853 203.381 27.947 L 203.381 27.947 L 203.381 27.947 Q 204.492 28.041 205.603 28.289 L 205.603 28.289 L 205.603 28.289 Q 206.713 28.536 207.781 28.946 L 207.781 28.946 L 207.781 28.946 Q 208.85 29.357 209.755 29.989 L 209.755 29.989 L 207.893 34.774 L 207.893 34.774 Q 206.987 34.193 206.201 33.8 L 206.201 33.8 L 206.201 33.8 Q 205.415 33.407 204.671 33.176 L 204.671 33.176 L 204.671 33.176 Q 203.928 32.945 203.219 32.843 L 203.219 32.843 L 203.219 32.843 Q 202.509 32.74 201.774 32.74 L 201.774 32.74 L 201.774 32.74 Q 200.236 32.74 199.108 33.279 L 199.108 33.279 L 199.108 33.279 Q 197.98 33.817 197.237 34.979 L 197.237 34.979 L 197.237 34.979 Q 196.494 36.141 196.135 37.961 L 196.135 37.961 L 196.135 37.961 Q 195.776 39.781 195.776 42.345 Z  M 234.758 48.241 L 234.758 48.241 L 234.758 48.241 Q 234.758 52.308 232.135 54.479 L 232.135 54.479 L 232.135 54.479 Q 229.512 56.649 224.419 56.649 L 224.419 56.649 L 224.419 56.649 Q 222.231 56.649 220.394 56.23 L 220.394 56.23 L 220.394 56.23 Q 218.557 55.812 217.19 55.299 L 217.19 55.299 L 217.19 55.299 Q 215.601 54.718 214.285 53.949 L 214.285 53.949 L 215.72 49.215 L 215.72 49.215 Q 215.72 49.215 216.182 49.403 L 216.182 49.403 L 216.182 49.403 Q 216.643 49.608 217.386 49.89 L 217.386 49.89 L 217.386 49.89 Q 218.13 50.172 219.095 50.505 L 219.095 50.505 L 219.095 50.505 Q 220.061 50.839 221.069 51.121 L 221.069 51.121 L 221.069 51.121 Q 222.078 51.403 223.043 51.591 L 223.043 51.591 L 223.043 51.591 Q 224.009 51.778 224.795 51.778 L 224.795 51.778 L 224.795 51.778 Q 226.658 51.778 227.563 51.249 L 227.563 51.249 L 227.563 51.249 Q 228.469 50.719 228.469 49.403 L 228.469 49.403 L 228.469 49.403 Q 228.469 48.89 228.358 48.446 L 228.358 48.446 L 228.358 48.446 Q 228.247 48.002 227.991 47.609 L 227.991 47.609 L 227.991 47.609 Q 227.734 47.216 227.299 46.891 L 227.299 46.891 L 227.299 46.891 Q 226.863 46.566 226.196 46.276 L 226.196 46.276 L 219.121 43.285 L 219.121 43.285 Q 216.541 42.208 215.242 40.32 L 215.242 40.32 L 215.242 40.32 Q 213.943 38.431 213.943 35.765 L 213.943 35.765 L 213.943 35.765 Q 213.943 34.398 214.37 33.279 L 214.37 33.279 L 214.37 33.279 Q 214.797 32.159 215.541 31.279 L 215.541 31.279 L 215.541 31.279 Q 216.284 30.399 217.284 29.758 L 217.284 29.758 L 217.284 29.758 Q 218.284 29.117 219.437 28.69 L 219.437 28.69 L 219.437 28.69 Q 220.591 28.263 221.838 28.058 L 221.838 28.058 L 221.838 28.058 Q 223.086 27.853 224.316 27.853 L 224.316 27.853 L 224.316 27.853 Q 225.718 27.853 226.982 28.024 L 226.982 28.024 L 226.982 28.024 Q 228.247 28.195 229.309 28.508 L 229.309 28.508 L 229.309 28.508 Q 230.372 28.822 231.249 29.081 L 231.249 29.081 L 231.249 29.081 Q 232.126 29.34 232.733 29.604 L 232.733 29.604 L 232.733 29.604 Q 233.34 29.869 233.665 30.04 L 233.665 30.04 L 233.972 30.211 L 232.4 34.637 L 232.092 34.501 L 232.092 34.501 Q 231.802 34.364 231.289 34.15 L 231.289 34.15 L 231.289 34.15 Q 230.776 33.937 230.058 33.72 L 230.058 33.72 L 230.058 33.72 Q 229.34 33.503 228.528 33.259 L 228.528 33.259 L 228.528 33.259 Q 227.717 33.014 226.812 32.877 L 226.812 32.877 L 226.812 32.877 Q 225.906 32.74 225 32.74 L 225 32.74 L 225 32.74 Q 224.231 32.74 223.368 32.809 L 223.368 32.809 L 223.368 32.809 Q 222.505 32.877 221.779 33.133 L 221.779 33.133 L 221.779 33.133 Q 221.052 33.39 220.574 33.885 L 220.574 33.885 L 220.574 33.885 Q 220.095 34.381 220.095 35.236 L 220.095 35.236 L 220.095 35.236 Q 220.095 35.441 220.121 35.688 L 220.121 35.688 L 220.121 35.688 Q 220.146 35.936 220.334 36.218 L 220.334 36.218 L 220.334 36.218 Q 220.522 36.5 220.933 36.808 L 220.933 36.808 L 220.933 36.808 Q 221.343 37.115 222.112 37.423 L 222.112 37.423 L 228.469 39.986 L 228.469 39.986 Q 229.956 40.585 231.127 41.371 L 231.127 41.371 L 231.127 41.371 Q 232.297 42.157 233.109 43.165 L 233.109 43.165 L 233.109 43.165 Q 233.921 44.174 234.34 45.43 L 234.34 45.43 L 234.34 45.43 Q 234.758 46.686 234.758 48.241 Z  M 244.705 28.314 L 250.43 46.737 L 255.916 28.314 L 262.342 28.314 L 253.677 56.171 L 247.012 56.171 L 238.365 28.314 L 244.705 28.314 L 244.705 28.314 Z " fill="rgb(105,213,11)"/><path d=" M 191.033 74.637 L 223.5 74.637 L 223.5 82.637 L 191.033 82.637 L 191.033 74.637 Z " fill="rgb(105,213,11)"/><path d=" M 191.033 87.637 L 223.5 87.637 L 223.5 95.637 L 191.033 95.637 L 191.033 87.637 Z " fill="rgb(105,213,11)"/><path d=" M 191.033 100.637 L 223.5 100.637 L 223.5 108.637 L 191.033 108.637 L 191.033 100.637 Z " fill="rgb(105,213,11)"/><path d=" M 228.5 74.637 L 261 74.637 L 261 82.637 L 228.5 82.637 L 228.5 74.637 Z " fill="rgb(105,213,11)"/><path d=" M 228.5 87.637 L 261 87.637 L 261 95.637 L 228.5 95.637 L 228.5 87.637 Z " fill="rgb(105,213,11)"/><path d=" M 228.5 100.637 L 261 100.637 L 261 108.637 L 228.5 108.637 L 228.5 100.637 Z " fill="rgb(105,213,11)"/></g></svg>