<?xml version="1.0" encoding="UTF-8" standalone="no"?><!-- Generator: Gravit.io --><svg xmlns="http://www.w3.org/2000/svg" xmlns:xlink="http://www.w3.org/1999/xlink" style="isolation:isolate" viewBox="-63.12 -10.046 100 142" width="100pt" height="142pt"><defs><clipPath id="_clipPath_nBx4TPm3EoY9QvO7I00xQjgkY017sZF4"><rect x="-63.12" y="-10.046" width="100" height="142"/></clipPath></defs><g clip-path="url(#_clipPath_nBx4TPm3EoY9QvO7I00xQjgkY017sZF4)"><rect x="-63.12" y="-10.046" width="100" height="142" style="fill:rgb(13,13,13)" fill-opacity="0"/><path d=" M -53.12 -10.046 L 6.88 -10.046 L 36.88 19.954 L 36.88 121.954 C 36.88 127.473 32.399 131.954 26.88 131.954 L -53.12 131.954 C -58.64 131.954 -63.12 127.473 -63.12 121.954 L -63.12 -0.046 C -63.12 -5.565 -58.64 -10.046 -53.12 -10.046 Z " fill="rgb(255,255,255)"/><path d=" M 6.88 -10.046 L 6.88 9.954 C 6.88 15.473 11.36 19.954 16.88 19.954 L 36.88 19.954 L 6.88 -10.046 Z " fill="rgb(204,204,204)"/><path d=" M -48.104 45.954 L 21.863 45.954 L 21.863 53.954 L -48.104 53.954 L -48.104 45.954 Z " fill="rgb(34,36,38)"/><path d=" M -48.104 30.954 L 11.863 30.954 L 11.863 38.954 L -48.104 38.954 L -48.104 30.954 Z " fill="rgb(34,36,38)"/><path d=" M -48.104 60.954 L 1.863 60.954 L 1.863 68.954 L -48.104 68.954 L -48.104 60.954 Z " fill="rgb(34,36,38)"/><path d=" M -48.104 75.954 L 11.863 75.954 L 11.863 83.954 L -48.104 83.954 L -48.104 75.954 Z " fill="rgb(34,36,38)"/><path d=" M -48.104 90.954 L -8.137 90.954 L -8.137 98.954 L -48.104 98.954 L -48.104 90.954 Z " fill="rgb(34,36,38)"/></g></svg>