<?xml version="1.0" encoding="UTF-8" standalone="no"?><!-- Generator: Gravit.io --><svg xmlns="http://www.w3.org/2000/svg" xmlns:xlink="http://www.w3.org/1999/xlink" style="isolation:isolate" viewBox="103.621 -109.079 100 142" width="100pt" height="142pt"><defs><clipPath id="_clipPath_MOLzhI8mN3JnTmB2cXhJVFnapEdnm00H"><rect x="103.621" y="-109.079" width="100" height="142"/></clipPath></defs><g clip-path="url(#_clipPath_MOLzhI8mN3JnTmB2cXhJVFnapEdnm00H)"><rect x="103.621" y="-109.079" width="100" height="142" style="fill:rgb(13,13,13)" fill-opacity="0"/><path d=" M 113.621 -109.079 L 173.621 -109.079 L 203.621 -79.079 L 203.621 22.921 C 203.621 28.44 199.14 32.921 193.621 32.921 L 113.621 32.921 C 108.102 32.921 103.621 28.44 103.621 22.921 L 103.621 -99.079 C 103.621 -104.599 108.102 -109.079 113.621 -109.079 Z " fill="rgb(255,255,255)"/><path d=" M 173.621 -109.079 L 173.621 -89.079 C 173.621 -83.56 178.102 -79.079 183.621 -79.079 L 203.621 -79.079 L 173.621 -109.079 Z " fill="rgb(204,204,204)"/><path d=" M 153.621 -27.123 L 153.621 -27.123 C 167.419 -27.123 178.621 -15.911 178.621 -2.101 L 178.621 -2.101 C 178.621 11.709 167.419 22.921 153.621 22.921 L 153.621 22.921 C 139.823 22.921 128.621 11.709 128.621 -2.101 L 128.621 -2.101 C 128.621 -15.911 139.823 -27.123 153.621 -27.123 Z " fill="rgb(30,26,255)"/><path d=" M 168.954 -2.101 L 142.973 12.899 L 142.973 -17.101 L 168.954 -2.101 Z " fill="rgb(255,255,255)"/><path d=" M 126.73 -40.908 L 120.68 -59.434 L 120.68 -40.908 L 115.075 -40.908 L 115.075 -68.765 L 122.936 -68.765 L 129.704 -48.445 L 136.762 -68.765 L 144.64 -68.765 L 144.64 -40.908 L 139.035 -40.908 L 139.035 -59.434 L 133.054 -40.908 L 126.73 -40.908 Z  M 171.42 -59.382 L 171.42 -59.382 L 171.42 -59.382 Q 171.42 -56.716 170.429 -54.99 L 170.429 -54.99 L 170.429 -54.99 Q 169.438 -53.264 167.635 -52.273 L 167.635 -52.273 L 167.635 -52.273 Q 165.832 -51.282 163.32 -50.897 L 163.32 -50.897 L 163.32 -50.897 Q 160.807 -50.513 157.765 -50.513 L 157.765 -50.513 L 156.86 -50.513 L 156.86 -40.908 L 150.041 -40.908 L 150.041 -68.765 L 158.244 -68.765 L 158.244 -68.765 Q 161.32 -68.765 163.747 -68.329 L 163.747 -68.329 L 163.747 -68.329 Q 166.174 -67.893 167.857 -66.816 L 167.857 -66.816 L 167.857 -66.816 Q 169.54 -65.74 170.455 -63.928 L 170.455 -63.928 L 170.455 -63.928 Q 171.369 -62.117 171.42 -59.382 Z  M 156.86 -54.512 L 157.748 -54.512 L 157.748 -54.512 Q 159.167 -54.512 160.423 -54.725 L 160.423 -54.725 L 160.423 -54.725 Q 161.679 -54.939 162.619 -55.486 L 162.619 -55.486 L 162.619 -55.486 Q 163.559 -56.033 164.106 -56.964 L 164.106 -56.964 L 164.106 -56.964 Q 164.653 -57.896 164.653 -59.331 L 164.653 -59.331 L 164.653 -59.331 Q 164.653 -60.818 164.234 -61.818 L 164.234 -61.818 L 164.234 -61.818 Q 163.815 -62.817 163.003 -63.407 L 163.003 -63.407 L 163.003 -63.407 Q 162.192 -63.997 161.004 -64.244 L 161.004 -64.244 L 161.004 -64.244 Q 159.816 -64.492 158.261 -64.492 L 158.261 -64.492 L 156.86 -64.492 L 156.86 -54.512 Z  M 183.913 -55.52 L 183.913 -55.52 L 183.913 -55.52 Q 183.913 -56.426 183.161 -56.862 L 183.161 -56.862 L 183.161 -56.862 Q 182.409 -57.297 181.213 -57.297 L 181.213 -57.297 L 181.213 -57.297 Q 180.392 -57.297 179.529 -57.109 L 179.529 -57.109 L 179.529 -57.109 Q 178.666 -56.921 177.949 -56.691 L 177.949 -56.691 L 177.949 -56.691 Q 177.231 -56.46 176.744 -56.263 L 176.744 -56.263 L 176.744 -56.263 Q 176.257 -56.067 176.188 -56.05 L 176.188 -56.05 L 174.069 -60.254 L 174.069 -60.254 Q 174.343 -60.391 174.941 -60.698 L 174.941 -60.698 L 174.941 -60.698 Q 175.539 -61.006 176.402 -61.322 L 176.402 -61.322 L 176.402 -61.322 Q 177.265 -61.638 178.359 -61.877 L 178.359 -61.877 L 178.359 -61.877 Q 179.452 -62.117 180.717 -62.117 L 180.717 -62.117 L 180.717 -62.117 Q 182.734 -62.117 184.374 -61.758 L 184.374 -61.758 L 184.374 -61.758 Q 186.015 -61.399 187.177 -60.587 L 187.177 -60.587 L 187.177 -60.587 Q 188.339 -59.775 188.98 -58.468 L 188.98 -58.468 L 188.98 -58.468 Q 189.621 -57.161 189.621 -55.281 L 189.621 -55.281 L 189.621 -55.281 Q 189.621 -54.529 189.399 -53.785 L 189.399 -53.785 L 189.399 -53.785 Q 189.177 -53.042 188.749 -52.393 L 188.749 -52.393 L 188.749 -52.393 Q 188.322 -51.743 187.69 -51.256 L 187.69 -51.256 L 187.69 -51.256 Q 187.057 -50.769 186.237 -50.564 L 186.237 -50.564 L 186.237 -50.564 Q 187.126 -50.325 187.869 -49.778 L 187.869 -49.778 L 187.869 -49.778 Q 188.613 -49.231 189.142 -48.505 L 189.142 -48.505 L 189.142 -48.505 Q 189.672 -47.778 189.963 -46.932 L 189.963 -46.932 L 189.963 -46.932 Q 190.253 -46.086 190.253 -45.249 L 190.253 -45.249 L 190.253 -45.249 Q 190.253 -43.301 189.561 -41.899 L 189.561 -41.899 L 189.561 -41.899 Q 188.869 -40.498 187.638 -39.601 L 187.638 -39.601 L 187.638 -39.601 Q 186.408 -38.704 184.716 -38.276 L 184.716 -38.276 L 184.716 -38.276 Q 183.024 -37.849 181.025 -37.849 L 181.025 -37.849 L 181.025 -37.849 Q 179.606 -37.849 178.453 -38.012 L 178.453 -38.012 L 178.453 -38.012 Q 177.299 -38.174 176.462 -38.379 L 176.462 -38.379 L 176.462 -38.379 Q 175.624 -38.584 175.112 -38.763 L 175.112 -38.763 L 175.112 -38.763 Q 174.599 -38.943 174.479 -38.994 L 174.479 -38.994 L 176.017 -43.643 L 176.017 -43.643 Q 176.154 -43.591 176.607 -43.412 L 176.607 -43.412 L 176.607 -43.412 Q 177.06 -43.232 177.718 -43.053 L 177.718 -43.053 L 177.718 -43.053 Q 178.376 -42.874 179.179 -42.728 L 179.179 -42.728 L 179.179 -42.728 Q 179.982 -42.583 180.82 -42.583 L 180.82 -42.583 L 180.82 -42.583 Q 182.563 -42.583 183.426 -43.164 L 183.426 -43.164 L 183.426 -43.164 Q 184.289 -43.745 184.289 -45.181 L 184.289 -45.181 L 184.289 -45.181 Q 184.289 -46.001 183.827 -46.591 L 183.827 -46.591 L 183.827 -46.591 Q 183.366 -47.18 182.623 -47.565 L 182.623 -47.565 L 182.623 -47.565 Q 181.879 -47.949 180.965 -48.137 L 180.965 -48.137 L 180.965 -48.137 Q 180.051 -48.325 179.128 -48.325 L 179.128 -48.325 L 179.128 -52.837 L 179.128 -52.837 Q 180.034 -52.837 180.897 -52.982 L 180.897 -52.982 L 180.897 -52.982 Q 181.76 -53.127 182.426 -53.444 L 182.426 -53.444 L 182.426 -53.444 Q 183.093 -53.76 183.503 -54.272 L 183.503 -54.272 L 183.503 -54.272 Q 183.913 -54.785 183.913 -55.52 Z " fill="rgb(30,26,255)"/></g></svg>