<?xml version="1.0" encoding="UTF-8" standalone="no"?><!-- Generator: Gravit.io --><svg xmlns="http://www.w3.org/2000/svg" xmlns:xlink="http://www.w3.org/1999/xlink" style="isolation:isolate" viewBox="103.621 -109.079 100 142" width="100pt" height="142pt"><defs><clipPath id="_clipPath_B5gyqgawe22odxjoNkaEWuinB3LbDNck"><rect x="103.621" y="-109.079" width="100" height="142"/></clipPath></defs><g clip-path="url(#_clipPath_B5gyqgawe22odxjoNkaEWuinB3LbDNck)"><rect x="103.621" y="-109.079" width="100" height="142" style="fill:rgb(13,13,13)" fill-opacity="0"/><path d=" M 113.621 -109.079 L 173.621 -109.079 L 203.621 -79.079 L 203.621 22.921 C 203.621 28.44 199.14 32.921 193.621 32.921 L 113.621 32.921 C 108.102 32.921 103.621 28.44 103.621 22.921 L 103.621 -99.079 C 103.621 -104.599 108.102 -109.079 113.621 -109.079 Z " fill="rgb(255,255,255)"/><path d=" M 173.621 -109.079 L 173.621 -89.079 C 173.621 -83.56 178.102 -79.079 183.621 -79.079 L 203.621 -79.079 L 173.621 -109.079 Z " fill="rgb(204,204,204)"/><path d=" M 153.621 -27.123 L 153.621 -27.123 C 167.419 -27.123 178.621 -15.911 178.621 -2.101 L 178.621 -2.101 C 178.621 11.709 167.419 22.921 153.621 22.921 L 153.621 22.921 C 139.823 22.921 128.621 11.709 128.621 -2.101 L 128.621 -2.101 C 128.621 -15.911 139.823 -27.123 153.621 -27.123 Z " fill="rgb(249,0,104)"/><path d=" M 168.954 -2.101 L 142.973 12.899 L 142.973 -17.101 L 168.954 -2.101 Z " fill="rgb(255,255,255)"/><path d=" M 125.799 -40.908 L 119.749 -59.434 L 119.749 -40.908 L 114.144 -40.908 L 114.144 -68.765 L 122.005 -68.765 L 128.773 -48.445 L 135.831 -68.765 L 143.709 -68.765 L 143.709 -40.908 L 138.104 -40.908 L 138.104 -59.434 L 132.122 -40.908 L 125.799 -40.908 Z  M 170.489 -59.382 L 170.489 -59.382 L 170.489 -59.382 Q 170.489 -56.716 169.498 -54.99 L 169.498 -54.99 L 169.498 -54.99 Q 168.506 -53.264 166.703 -52.273 L 166.703 -52.273 L 166.703 -52.273 Q 164.9 -51.282 162.388 -50.897 L 162.388 -50.897 L 162.388 -50.897 Q 159.876 -50.513 156.834 -50.513 L 156.834 -50.513 L 155.928 -50.513 L 155.928 -40.908 L 149.109 -40.908 L 149.109 -68.765 L 157.313 -68.765 L 157.313 -68.765 Q 160.389 -68.765 162.815 -68.329 L 162.815 -68.329 L 162.815 -68.329 Q 165.242 -67.893 166.926 -66.816 L 166.926 -66.816 L 166.926 -66.816 Q 168.609 -65.74 169.523 -63.928 L 169.523 -63.928 L 169.523 -63.928 Q 170.438 -62.117 170.489 -59.382 Z  M 155.928 -54.512 L 156.817 -54.512 L 156.817 -54.512 Q 158.235 -54.512 159.492 -54.725 L 159.492 -54.725 L 159.492 -54.725 Q 160.748 -54.939 161.688 -55.486 L 161.688 -55.486 L 161.688 -55.486 Q 162.627 -56.033 163.174 -56.964 L 163.174 -56.964 L 163.174 -56.964 Q 163.721 -57.896 163.721 -59.331 L 163.721 -59.331 L 163.721 -59.331 Q 163.721 -60.818 163.303 -61.818 L 163.303 -61.818 L 163.303 -61.818 Q 162.884 -62.817 162.072 -63.407 L 162.072 -63.407 L 162.072 -63.407 Q 161.26 -63.997 160.073 -64.244 L 160.073 -64.244 L 160.073 -64.244 Q 158.885 -64.492 157.33 -64.492 L 157.33 -64.492 L 155.928 -64.492 L 155.928 -54.512 Z  M 178.692 -46.65 L 183.255 -46.65 L 183.255 -53.503 L 178.692 -46.65 Z  M 183.939 -62.424 L 188.553 -61.211 L 188.553 -46.702 L 191.714 -46.702 L 191.714 -41.934 L 188.553 -41.934 L 188.553 -37.148 L 183.255 -37.148 L 183.255 -41.934 L 173.292 -41.934 L 172.557 -45.591 L 183.939 -62.424 Z " fill="rgb(249,0,104)"/></g></svg>