<?xml version="1.0" encoding="UTF-8" standalone="no"?><!-- Generator: Gravit.io --><svg xmlns="http://www.w3.org/2000/svg" xmlns:xlink="http://www.w3.org/1999/xlink" style="isolation:isolate" viewBox="34.364 26.718 100 142" width="100pt" height="142pt"><defs><clipPath id="_clipPath_geTMr7nIHYx3QxJHCRo8stn6bBNcrzka"><rect x="34.364" y="26.718" width="100" height="142"/></clipPath></defs><g clip-path="url(#_clipPath_geTMr7nIHYx3QxJHCRo8stn6bBNcrzka)"><rect x="34.364" y="26.718" width="100" height="142" style="fill:rgb(13,13,13)" fill-opacity="0"/><path d=" M 44.364 26.718 L 104.364 26.718 L 134.364 56.718 L 134.364 158.718 C 134.364 164.237 129.883 168.718 124.364 168.718 L 44.364 168.718 C 38.845 168.718 34.364 164.237 34.364 158.718 L 34.364 36.718 C 34.364 31.199 38.845 26.718 44.364 26.718 Z " fill="rgb(203,6,6)"/><path d=" M 104.364 26.718 L 104.364 46.718 C 104.364 52.237 108.845 56.718 114.364 56.718 L 134.364 56.718 L 104.364 26.718 Z " fill="rgb(255,124,124)"/><path d=" M 70.248 76.415 L 70.248 76.415 L 70.248 76.415 Q 70.248 79.081 69.256 80.807 L 69.256 80.807 L 69.256 80.807 Q 68.265 82.533 66.462 83.524 L 66.462 83.524 L 66.462 83.524 Q 64.659 84.515 62.147 84.9 L 62.147 84.9 L 62.147 84.9 Q 59.635 85.284 56.593 85.284 L 56.593 85.284 L 55.687 85.284 L 55.687 94.889 L 48.868 94.889 L 48.868 67.032 L 57.071 67.032 L 57.071 67.032 Q 60.148 67.032 62.574 67.468 L 62.574 67.468 L 62.574 67.468 Q 65.001 67.904 66.684 68.981 L 66.684 68.981 L 66.684 68.981 Q 68.368 70.057 69.282 71.869 L 69.282 71.869 L 69.282 71.869 Q 70.196 73.68 70.248 76.415 Z  M 55.687 81.285 L 56.576 81.285 L 56.576 81.285 Q 57.994 81.285 59.25 81.072 L 59.25 81.072 L 59.25 81.072 Q 60.506 80.858 61.446 80.311 L 61.446 80.311 L 61.446 80.311 Q 62.386 79.764 62.933 78.833 L 62.933 78.833 L 62.933 78.833 Q 63.48 77.902 63.48 76.466 L 63.48 76.466 L 63.48 76.466 Q 63.48 74.979 63.061 73.979 L 63.061 73.979 L 63.061 73.979 Q 62.643 72.98 61.831 72.39 L 61.831 72.39 L 61.831 72.39 Q 61.019 71.801 59.831 71.553 L 59.831 71.553 L 59.831 71.553 Q 58.644 71.305 57.088 71.305 L 57.088 71.305 L 55.687 71.305 L 55.687 81.285 L 55.687 81.285 Z  M 89.73 81.029 L 89.73 81.029 L 89.73 81.029 Q 89.73 79.559 89.61 78.269 L 89.61 78.269 L 89.61 78.269 Q 89.491 76.979 89.166 75.902 L 89.166 75.902 L 89.166 75.902 Q 88.841 74.825 88.252 73.979 L 88.252 73.979 L 88.252 73.979 Q 87.662 73.134 86.722 72.544 L 86.722 72.544 L 86.722 72.544 Q 85.782 71.954 84.441 71.638 L 84.441 71.638 L 84.441 71.638 Q 83.099 71.322 81.253 71.322 L 81.253 71.322 L 80.331 71.322 L 80.331 90.599 L 81.288 90.599 L 81.288 90.599 Q 83.8 90.599 85.432 89.899 L 85.432 89.899 L 85.432 89.899 Q 87.064 89.198 88.021 87.942 L 88.021 87.942 L 88.021 87.942 Q 88.978 86.686 89.354 84.926 L 89.354 84.926 L 89.354 84.926 Q 89.73 83.165 89.73 81.029 Z  M 96.566 81.114 L 96.566 81.114 L 96.566 81.114 Q 96.566 84.481 95.686 87.053 L 95.686 87.053 L 95.686 87.053 Q 94.806 89.625 93.011 91.368 L 93.011 91.368 L 93.011 91.368 Q 91.217 93.112 88.483 94 L 88.483 94 L 88.483 94 Q 85.748 94.889 82.057 94.889 L 82.057 94.889 L 73.512 94.889 L 73.512 67.032 L 82.091 67.032 L 82.091 67.032 Q 89.32 67.032 92.943 70.57 L 92.943 70.57 L 92.943 70.57 Q 96.566 74.108 96.566 81.114 Z  M 107.879 82.601 L 107.879 94.889 L 101.078 94.889 L 101.078 67.032 L 120.423 67.032 L 120.423 71.322 L 107.879 71.322 L 107.879 78.414 L 118.851 78.414 L 118.851 82.601 L 107.879 82.601 L 107.879 82.601 Z " fill="rgb(255,255,255)"/><path d=" M 49.397 113.355 L 119.364 113.355 L 119.364 121.355 L 49.397 121.355 L 49.397 113.355 Z " fill="rgb(255,255,255)"/><path d=" M 49.397 128.355 L 99.364 128.355 L 99.364 136.355 L 49.397 136.355 L 49.397 128.355 Z " fill="rgb(255,255,255)"/><path d=" M 49.397 143.355 L 89.364 143.355 L 89.364 151.355 L 49.397 151.355 L 49.397 143.355 Z " fill="rgb(255,255,255)"/></g></svg>