<?xml version="1.0" encoding="UTF-8" standalone="no"?><!-- Generator: Gravit.io --><svg xmlns="http://www.w3.org/2000/svg" xmlns:xlink="http://www.w3.org/1999/xlink" style="isolation:isolate" viewBox="50.496 -24.364 120 142" width="120pt" height="142pt"><defs><clipPath id="_clipPath_CA4fxj3qBlJWntDrjyb1GlhMcroUueqx"><rect x="50.496" y="-24.364" width="120" height="142"/></clipPath></defs><g clip-path="url(#_clipPath_CA4fxj3qBlJWntDrjyb1GlhMcroUueqx)"><rect x="50.496" y="-24.364" width="120" height="142" style="fill:rgb(13,13,13)" fill-opacity="0"/><path d=" M 80.496 -24.364 L 140.496 -24.364 L 170.496 5.636 L 170.496 107.636 C 170.496 113.155 166.016 117.636 160.496 117.636 L 80.496 117.636 C 74.977 117.636 70.496 113.155 70.496 107.636 L 70.496 -14.364 C 70.496 -19.883 74.977 -24.364 80.496 -24.364 Z " fill="rgb(255,255,255)"/><path d=" M 140.496 -24.364 L 140.496 -4.364 C 140.496 1.155 144.977 5.636 150.496 5.636 L 170.496 5.636 L 140.496 -24.364 Z " fill="rgb(204,204,204)"/><path d=" M 64.496 11.636 L 106.496 11.636 C 114.223 11.636 120.496 17.909 120.496 25.636 L 120.496 67.636 C 120.496 75.363 114.223 81.636 106.496 81.636 L 64.496 81.636 C 56.77 81.636 50.496 75.363 50.496 67.636 L 50.496 25.636 C 50.496 17.909 56.77 11.636 64.496 11.636 Z " fill="rgb(255,34,0)"/><path d=" M 145.496 29.588 L 145.496 29.588 L 145.496 44.588 L 160.496 44.588 L 160.496 44.588 C 160.496 52.866 153.775 59.588 145.496 59.588 L 145.496 59.588 C 137.218 59.588 130.496 52.866 130.496 44.588 L 130.496 44.588 C 130.496 36.309 137.218 29.588 145.496 29.588 Z " fill="rgb(255,34,0)"/><path d=" M 101.293 41.133 L 101.293 41.133 L 101.293 41.133 Q 101.293 44.942 99.877 47.408 L 99.877 47.408 L 99.877 47.408 Q 98.461 49.873 95.886 51.289 L 95.886 51.289 L 95.886 51.289 Q 93.31 52.705 89.721 53.255 L 89.721 53.255 L 89.721 53.255 Q 86.132 53.804 81.786 53.804 L 81.786 53.804 L 80.493 53.804 L 80.493 67.525 L 70.751 67.525 L 70.751 27.73 L 82.47 27.73 L 82.47 27.73 Q 86.865 27.73 90.331 28.352 L 90.331 28.352 L 90.331 28.352 Q 93.798 28.975 96.203 30.513 L 96.203 30.513 L 96.203 30.513 Q 98.608 32.051 99.914 34.639 L 99.914 34.639 L 99.914 34.639 Q 101.22 37.227 101.293 41.133 Z  M 80.493 48.091 L 81.762 48.091 L 81.762 48.091 Q 83.788 48.091 85.583 47.786 L 85.583 47.786 L 85.583 47.786 Q 87.377 47.481 88.72 46.7 L 88.72 46.7 L 88.72 46.7 Q 90.063 45.918 90.844 44.588 L 90.844 44.588 L 90.844 44.588 Q 91.625 43.257 91.625 41.206 L 91.625 41.206 L 91.625 41.206 Q 91.625 39.082 91.027 37.654 L 91.027 37.654 L 91.027 37.654 Q 90.429 36.226 89.269 35.384 L 89.269 35.384 L 89.269 35.384 Q 88.11 34.541 86.413 34.187 L 86.413 34.187 L 86.413 34.187 Q 84.716 33.833 82.494 33.833 L 82.494 33.833 L 80.493 33.833 L 80.493 48.091 L 80.493 48.091 Z " fill="rgb(255,255,255)"/><path d=" M 147.496 42.588 L 147.496 27.588 L 147.496 27.588 C 155.775 27.588 162.496 34.309 162.496 42.588 L 162.496 42.588 L 147.496 42.588 Z " fill="rgb(255,102,68)"/></g></svg>