<?xml version="1.0" encoding="UTF-8" standalone="no"?><!-- Generator: Gravit.io --><svg xmlns="http://www.w3.org/2000/svg" xmlns:xlink="http://www.w3.org/1999/xlink" style="isolation:isolate" viewBox="124.595 -138.49 100 142" width="100pt" height="142pt"><defs><clipPath id="_clipPath_EHoBPPiCIKOL3YnRxjB5XftpOoFL4N0v"><rect x="124.595" y="-138.49" width="100" height="142"/></clipPath></defs><g clip-path="url(#_clipPath_EHoBPPiCIKOL3YnRxjB5XftpOoFL4N0v)"><rect x="124.595" y="-138.49" width="100" height="142" style="fill:rgb(13,13,13)" fill-opacity="0"/><path d=" M 134.595 -138.49 L 194.595 -138.49 L 224.595 -108.49 L 224.595 -6.49 C 224.595 -0.971 220.114 3.51 214.595 3.51 L 134.595 3.51 C 129.076 3.51 124.595 -0.971 124.595 -6.49 L 124.595 -128.49 C 124.595 -134.01 129.076 -138.49 134.595 -138.49 Z " fill="rgb(255,255,255)"/><path d=" M 194.595 -138.49 L 194.595 -118.49 C 194.595 -112.971 199.076 -108.49 204.595 -108.49 L 224.595 -108.49 L 194.595 -138.49 Z " fill="rgb(204,204,204)"/><path d=" M 174.595 -56.534 L 174.595 -56.534 C 188.393 -56.534 199.595 -45.322 199.595 -31.512 L 199.595 -31.512 C 199.595 -17.702 188.393 -6.49 174.595 -6.49 L 174.595 -6.49 C 160.797 -6.49 149.595 -17.702 149.595 -31.512 L 149.595 -31.512 C 149.595 -45.322 160.797 -56.534 174.595 -56.534 Z " fill="rgb(0,234,210)"/><path d=" M 189.928 -31.512 L 163.947 -16.512 L 163.947 -46.512 L 189.928 -31.512 Z " fill="rgb(255,255,255)"/><path d=" M 148.481 -95.604 L 154.604 -95.604 L 157.607 -78.963 L 160.771 -95.604 L 166.41 -95.604 L 161.283 -71.741 L 155.029 -71.741 L 151.528 -89.803 L 148.085 -71.727 L 141.772 -71.727 L 136.674 -95.604 L 142.328 -95.604 L 145.478 -78.963 L 148.481 -95.604 Z  M 175.038 -95.604 L 181.22 -95.604 L 189.203 -71.727 L 183.373 -71.727 L 181.718 -76.971 L 174.657 -76.971 L 173.002 -71.727 L 167.172 -71.727 L 175.038 -95.604 Z  M 178.29 -88.455 L 175.404 -79.652 L 181.22 -79.652 L 178.29 -88.455 Z  M 195.429 -95.604 L 200.336 -79.813 L 205.038 -95.604 L 210.546 -95.604 L 203.119 -71.727 L 197.406 -71.727 L 189.994 -95.604 L 195.429 -95.604 Z " fill="rgb(0,234,210)"/></g></svg>