<?xml version="1.0" encoding="UTF-8" standalone="no"?><!-- Generator: Gravit.io --><svg xmlns="http://www.w3.org/2000/svg" xmlns:xlink="http://www.w3.org/1999/xlink" style="isolation:isolate" viewBox="41.25 94.45 120 142" width="120pt" height="142pt"><defs><clipPath id="_clipPath_UQOOiUMnmyRkNLbGp4CcM7BCwybMuXFD"><rect x="41.25" y="94.45" width="120" height="142"/></clipPath></defs><g clip-path="url(#_clipPath_UQOOiUMnmyRkNLbGp4CcM7BCwybMuXFD)"><rect x="41.25" y="94.45" width="120" height="142" style="fill:rgb(13,13,13)" fill-opacity="0"/><path d=" M 71.25 94.45 L 131.25 94.45 L 161.25 124.45 L 161.25 226.45 C 161.25 231.969 156.769 236.45 151.25 236.45 L 71.25 236.45 C 65.731 236.45 61.25 231.969 61.25 226.45 L 61.25 104.45 C 61.25 98.931 65.731 94.45 71.25 94.45 Z " fill="rgb(255,255,255)"/><path d=" M 131.25 94.45 L 131.25 114.45 C 131.25 119.969 135.731 124.45 141.25 124.45 L 161.25 124.45 L 131.25 94.45 Z " fill="rgb(204,204,204)"/><path d=" M 55.25 130.45 L 97.25 130.45 C 104.977 130.45 111.25 136.723 111.25 144.45 L 111.25 186.45 C 111.25 194.177 104.977 200.45 97.25 200.45 L 55.25 200.45 C 47.523 200.45 41.25 194.177 41.25 186.45 L 41.25 144.45 C 41.25 136.723 47.523 130.45 55.25 130.45 Z " fill="rgb(0,170,68)"/><path d=" M 121.266 146.45 L 129.234 146.45 L 129.234 154.45 L 121.266 154.45 L 121.266 146.45 Z " fill="rgb(0,170,68)"/><path d=" M 121.266 159.45 L 129.234 159.45 L 129.234 167.45 L 121.266 167.45 L 121.266 159.45 Z " fill="rgb(0,170,68)"/><path d=" M 121.266 172.45 L 129.234 172.45 L 129.234 180.45 L 121.266 180.45 L 121.266 172.45 Z " fill="rgb(0,102,34)"/><path d=" M 134.15 146.45 L 151.234 146.45 L 151.234 154.45 L 134.15 154.45 L 134.15 146.45 Z " fill="rgb(0,170,68)"/><path d=" M 134.15 159.45 L 151.234 159.45 L 151.234 167.45 L 134.15 167.45 L 134.15 159.45 Z " fill="rgb(0,170,68)"/><path d=" M 134.15 172.45 L 151.234 172.45 L 151.234 180.45 L 134.15 180.45 L 134.15 172.45 Z " fill="rgb(0,102,34)"/><path d=" M 75.25 159.068 L 82.721 146.544 L 92.828 146.544 L 80.347 166.509 L 92.828 186.339 L 82.525 186.339 L 75.241 174.676 L 67.95 186.339 L 57.672 186.339 L 70.196 166.442 L 57.672 146.544 L 67.779 146.544 L 75.25 159.068 L 75.25 159.068 Z " fill="rgb(255,255,255)"/></g></svg>