<?xml version="1.0" encoding="UTF-8" standalone="no"?><!-- Generator: Gravit.io --><svg xmlns="http://www.w3.org/2000/svg" xmlns:xlink="http://www.w3.org/1999/xlink" style="isolation:isolate" viewBox="185.914 38.635 100 142" width="100pt" height="142pt"><defs><clipPath id="_clipPath_79cCJhVpRv0HzEjbMA6ayfD5yvkStW7n"><rect x="185.914" y="38.635" width="100" height="142"/></clipPath></defs><g clip-path="url(#_clipPath_79cCJhVpRv0HzEjbMA6ayfD5yvkStW7n)"><rect x="185.914" y="38.635" width="100" height="142" style="fill:rgb(13,13,13)" fill-opacity="0"/><path d=" M 195.914 38.635 L 255.914 38.635 L 285.914 68.635 L 285.914 170.635 C 285.914 176.154 281.433 180.635 275.914 180.635 L 195.914 180.635 C 190.395 180.635 185.914 176.154 185.914 170.635 L 185.914 48.635 C 185.914 43.115 190.395 38.635 195.914 38.635 Z " fill="rgb(255,255,255)"/><path d=" M 255.914 38.635 L 255.914 58.635 C 255.914 64.154 260.395 68.635 265.914 68.635 L 285.914 68.635 L 255.914 38.635 Z " fill="rgb(204,204,204)"/><path d=" M 221.694 134.312 L 221.694 138.362 L 209.663 157.879 L 221.728 157.879 L 221.728 162.169 L 202.007 162.169 L 202.007 158.016 L 214.192 138.602 L 202.007 138.602 L 202.007 134.312 L 221.694 134.312 L 221.694 134.312 Z  M 226.933 159.075 L 229.872 159.075 L 229.872 137.423 L 226.933 137.423 L 226.933 134.312 L 239.682 134.312 L 239.682 137.423 L 236.708 137.423 L 236.708 159.075 L 239.682 159.075 L 239.682 162.169 L 226.933 162.169 L 226.933 159.075 L 226.933 159.075 Z  M 268.094 143.694 L 268.094 143.694 L 268.094 143.694 Q 268.094 146.36 267.103 148.087 L 267.103 148.087 L 267.103 148.087 Q 266.112 149.813 264.309 150.804 L 264.309 150.804 L 264.309 150.804 Q 262.506 151.795 259.994 152.18 L 259.994 152.18 L 259.994 152.18 Q 257.482 152.564 254.44 152.564 L 254.44 152.564 L 253.534 152.564 L 253.534 162.169 L 246.715 162.169 L 246.715 134.312 L 254.918 134.312 L 254.918 134.312 Q 257.994 134.312 260.421 134.748 L 260.421 134.748 L 260.421 134.748 Q 262.848 135.184 264.531 136.26 L 264.531 136.26 L 264.531 136.26 Q 266.215 137.337 267.129 139.149 L 267.129 139.149 L 267.129 139.149 Q 268.043 140.96 268.094 143.694 Z  M 253.534 148.565 L 254.423 148.565 L 254.423 148.565 Q 255.841 148.565 257.097 148.351 L 257.097 148.351 L 257.097 148.351 Q 258.353 148.138 259.293 147.591 L 259.293 147.591 L 259.293 147.591 Q 260.233 147.044 260.78 146.113 L 260.78 146.113 L 260.78 146.113 Q 261.327 145.181 261.327 143.746 L 261.327 143.746 L 261.327 143.746 Q 261.327 142.259 260.908 141.259 L 260.908 141.259 L 260.908 141.259 Q 260.489 140.259 259.678 139.67 L 259.678 139.67 L 259.678 139.67 Q 258.866 139.08 257.678 138.832 L 257.678 138.832 L 257.678 138.832 Q 256.49 138.585 254.935 138.585 L 254.935 138.585 L 253.534 138.585 L 253.534 148.565 L 253.534 148.565 Z " fill="rgb(34,36,38)"/><path d=" M 198.914 38.635 L 202.914 38.635 C 204.569 38.635 205.914 39.979 205.914 41.635 L 205.914 45.635 C 205.914 47.29 204.569 48.635 202.914 48.635 L 198.914 48.635 C 197.258 48.635 195.914 47.29 195.914 45.635 L 195.914 41.635 C 195.914 39.979 197.258 38.635 198.914 38.635 Z " fill="rgb(34,36,38)"/><path d=" M 196.914 65.635 L 201.914 65.635 C 202.466 65.635 202.914 66.083 202.914 66.635 L 202.914 66.635 C 202.914 67.187 202.47 67.698 201.924 67.776 L 196.904 68.493 C 196.357 68.571 195.914 68.187 195.914 67.635 L 195.914 66.635 C 195.914 66.083 196.362 65.635 196.914 65.635 Z " fill="rgb(34,36,38)"/><path d=" M 196.904 82.776 L 201.924 83.493 C 202.47 83.571 202.914 84.083 202.914 84.635 L 202.914 84.635 C 202.914 85.187 202.47 85.698 201.924 85.776 L 196.904 86.493 C 196.357 86.571 195.914 86.187 195.914 85.635 L 195.914 83.635 C 195.914 83.083 196.357 82.698 196.904 82.776 Z " fill="rgb(34,36,38)"/><path d=" M 196.904 70.776 L 201.924 71.493 C 202.47 71.571 202.914 72.083 202.914 72.635 L 202.914 72.635 C 202.914 73.187 202.47 73.698 201.924 73.776 L 196.904 74.493 C 196.357 74.571 195.914 74.187 195.914 73.635 L 195.914 71.635 C 195.914 71.083 196.357 70.698 196.904 70.776 Z " fill="rgb(34,36,38)"/><path d=" M 196.904 88.776 L 201.924 89.493 C 202.47 89.571 202.914 90.083 202.914 90.635 L 202.914 90.635 C 202.914 91.187 202.47 91.698 201.924 91.776 L 196.904 92.493 C 196.357 92.571 195.914 92.187 195.914 91.635 L 195.914 89.635 C 195.914 89.083 196.357 88.698 196.904 88.776 Z " fill="rgb(34,36,38)"/><path d=" M 196.904 76.776 L 201.924 77.493 C 202.47 77.571 202.914 78.083 202.914 78.635 L 202.914 78.635 C 202.914 79.187 202.47 79.698 201.924 79.776 L 196.904 80.493 C 196.357 80.571 195.914 80.187 195.914 79.635 L 195.914 77.635 C 195.914 77.083 196.357 76.698 196.904 76.776 Z " fill="rgb(34,36,38)"/><path d=" M 196.904 94.776 L 201.924 95.493 C 202.47 95.571 202.914 96.083 202.914 96.635 L 202.914 96.635 C 202.914 97.187 202.47 97.698 201.924 97.776 L 196.904 98.493 C 196.357 98.571 195.914 98.187 195.914 97.635 L 195.914 95.635 C 195.914 95.083 196.357 94.698 196.904 94.776 Z " fill="rgb(34,36,38)"/><path d=" M 199.904 68.493 L 204.924 67.776 C 205.47 67.698 205.914 68.083 205.914 68.635 L 205.914 70.635 C 205.914 71.187 205.47 71.571 204.924 71.493 L 199.904 70.776 C 199.357 70.698 198.914 70.187 198.914 69.635 L 198.914 69.635 C 198.914 69.083 199.357 68.571 199.904 68.493 Z " fill="rgb(34,36,38)"/><path d=" M 199.904 86.493 L 204.924 85.776 C 205.47 85.698 205.914 86.083 205.914 86.635 L 205.914 88.635 C 205.914 89.187 205.47 89.571 204.924 89.493 L 199.904 88.776 C 199.357 88.698 198.914 88.187 198.914 87.635 L 198.914 87.635 C 198.914 87.083 199.357 86.571 199.904 86.493 Z " fill="rgb(34,36,38)"/><path d=" M 199.904 74.493 L 204.924 73.776 C 205.47 73.698 205.914 74.083 205.914 74.635 L 205.914 76.635 C 205.914 77.187 205.47 77.571 204.924 77.493 L 199.904 76.776 C 199.357 76.698 198.914 76.187 198.914 75.635 L 198.914 75.635 C 198.914 75.083 199.357 74.571 199.904 74.493 Z " fill="rgb(34,36,38)"/><path d=" M 199.904 92.493 L 204.924 91.776 C 205.47 91.698 205.914 92.083 205.914 92.635 L 205.914 94.635 C 205.914 95.187 205.47 95.571 204.924 95.493 L 199.904 94.776 C 199.357 94.698 198.914 94.187 198.914 93.635 L 198.914 93.635 C 198.914 93.083 199.357 92.571 199.904 92.493 Z " fill="rgb(34,36,38)"/><path d=" M 199.904 80.493 L 204.924 79.776 C 205.47 79.698 205.914 80.083 205.914 80.635 L 205.914 82.635 C 205.914 83.187 205.47 83.571 204.924 83.493 L 199.904 82.776 C 199.357 82.698 198.914 82.187 198.914 81.635 L 198.914 81.635 C 198.914 81.083 199.357 80.571 199.904 80.493 Z " fill="rgb(34,36,38)"/><path d=" M 199.904 98.493 L 204.924 97.776 C 205.47 97.698 205.914 98.083 205.914 98.635 L 205.914 99.635 C 205.914 100.187 205.466 100.635 204.914 100.635 L 199.914 100.635 C 199.362 100.635 198.914 100.187 198.914 99.635 L 198.914 99.635 C 198.914 99.083 199.357 98.571 199.904 98.493 Z " fill="rgb(34,36,38)"/><path d=" M 196.914 101.503 L 204.914 101.503 C 205.466 101.503 205.914 101.951 205.914 102.503 L 205.914 103.503 C 205.914 104.055 205.466 104.503 204.914 104.503 L 196.914 104.503 C 196.362 104.503 195.914 104.055 195.914 103.503 L 195.914 102.503 C 195.914 101.951 196.362 101.503 196.914 101.503 Z " fill="rgb(34,36,38)"/><path d=" M 197.914 49.635 L 203.914 49.635 L 205.517 61.661 C 205.736 63.302 204.569 64.635 202.914 64.635 L 198.914 64.635 C 197.258 64.635 196.091 63.302 196.31 61.661 L 197.914 49.635 Z " fill="rgb(34,36,38)"/></g></svg>