<?xml version="1.0" encoding="UTF-8" standalone="no"?><!-- Generator: Gravit.io --><svg xmlns="http://www.w3.org/2000/svg" xmlns:xlink="http://www.w3.org/1999/xlink" style="isolation:isolate" viewBox="50.496 -24.364 120 142" width="120pt" height="142pt"><defs><clipPath id="_clipPath_1PhH1rkfKdajbLJWlIYbQ3B7BraSkXps"><rect x="50.496" y="-24.364" width="120" height="142"/></clipPath></defs><g clip-path="url(#_clipPath_1PhH1rkfKdajbLJWlIYbQ3B7BraSkXps)"><rect x="50.496" y="-24.364" width="120" height="142" style="fill:rgb(13,13,13)" fill-opacity="0"/><path d=" M 80.496 -24.364 L 140.496 -24.364 L 170.496 5.636 L 170.496 107.636 C 170.496 113.155 166.016 117.636 160.496 117.636 L 80.496 117.636 C 74.977 117.636 70.496 113.155 70.496 107.636 L 70.496 -14.364 C 70.496 -19.883 74.977 -24.364 80.496 -24.364 Z " fill="rgb(255,255,255)"/><path d=" M 140.496 -24.364 L 140.496 -4.364 C 140.496 1.155 144.977 5.636 150.496 5.636 L 170.496 5.636 L 140.496 -24.364 Z " fill="rgb(204,204,204)"/><path d=" M 64.496 11.636 L 106.496 11.636 C 114.223 11.636 120.496 17.909 120.496 25.636 L 120.496 67.636 C 120.496 75.363 114.223 81.636 106.496 81.636 L 64.496 81.636 C 56.77 81.636 50.496 75.363 50.496 67.636 L 50.496 25.636 C 50.496 17.909 56.77 11.636 64.496 11.636 Z " fill="rgb(0,102,255)"/><path d=" M 130.513 27.636 L 160.48 27.636 L 160.48 35.636 L 130.513 35.636 L 130.513 27.636 Z " fill="rgb(0,102,255)"/><path d=" M 130.513 42.636 L 160.48 42.636 L 160.48 50.636 L 130.513 50.636 L 130.513 42.636 Z " fill="rgb(0,102,255)"/><path d=" M 130.513 57.636 L 150.48 57.636 L 150.48 65.636 L 130.513 65.636 L 130.513 57.636 Z " fill="rgb(0,102,255)"/><path d=" M 79.443 27.73 L 89.648 27.73 L 94.653 55.464 L 99.926 27.73 L 109.326 27.73 L 100.781 67.5 L 90.356 67.5 L 84.521 37.398 L 78.784 67.525 L 68.261 67.525 L 59.765 27.73 L 69.189 27.73 L 74.438 55.464 L 79.443 27.73 L 79.443 27.73 Z " fill="rgb(255,255,255)"/></g></svg>