<?xml version="1.0" encoding="UTF-8" standalone="no"?><!-- Generator: Gravit.io --><svg xmlns="http://www.w3.org/2000/svg" xmlns:xlink="http://www.w3.org/1999/xlink" style="isolation:isolate" viewBox="155.367 -294.462 100 142" width="100pt" height="142pt"><defs><clipPath id="_clipPath_yI2zTNI4LUMlMAnSgLvC9Uk1AwghILye"><rect x="155.367" y="-294.462" width="100" height="142"/></clipPath></defs><g clip-path="url(#_clipPath_yI2zTNI4LUMlMAnSgLvC9Uk1AwghILye)"><rect x="155.367" y="-294.462" width="100" height="142" style="fill:rgb(13,13,13)" fill-opacity="0"/><path d=" M 165.367 -294.462 L 225.367 -294.462 L 255.367 -264.462 L 255.367 -162.462 C 255.367 -156.943 250.886 -152.462 245.367 -152.462 L 165.367 -152.462 C 159.848 -152.462 155.367 -156.943 155.367 -162.462 L 155.367 -284.462 C 155.367 -289.981 159.848 -294.462 165.367 -294.462 Z " fill="rgb(255,255,255)"/><path d=" M 225.367 -294.462 L 225.367 -274.462 C 225.367 -268.943 229.848 -264.462 235.367 -264.462 L 255.367 -264.462 L 225.367 -294.462 Z " fill="rgb(204,204,204)"/><path d=" M 189.002 -226.291 L 169.776 -226.291 L 169.776 -254.148 L 188.849 -254.148 L 188.849 -249.858 L 176.578 -249.858 L 176.578 -242.766 L 187.259 -242.766 L 187.259 -238.579 L 176.578 -238.579 L 176.578 -230.478 L 189.002 -230.478 L 189.002 -226.291 L 189.002 -226.291 Z  M 204.367 -245.381 L 209.596 -254.148 L 216.671 -254.148 L 207.934 -240.172 L 216.671 -226.291 L 209.459 -226.291 L 204.361 -234.455 L 199.257 -226.291 L 192.062 -226.291 L 200.829 -240.219 L 192.062 -254.148 L 199.137 -254.148 L 204.367 -245.381 L 204.367 -245.381 Z  M 240.41 -226.291 L 221.184 -226.291 L 221.184 -254.148 L 240.256 -254.148 L 240.256 -249.858 L 227.985 -249.858 L 227.985 -242.766 L 238.667 -242.766 L 238.667 -238.579 L 227.985 -238.579 L 227.985 -230.478 L 240.41 -230.478 L 240.41 -226.291 L 240.41 -226.291 Z " fill="rgb(34,36,38)"/><path d=" M 214.883 -205.28 L 214.883 -205.28 C 223.965 -200.037 227.081 -188.407 221.838 -179.325 L 221.838 -179.325 C 216.594 -170.244 204.965 -167.128 195.883 -172.371 L 195.883 -172.371 C 186.802 -177.614 183.685 -189.244 188.929 -198.325 L 188.929 -198.325 C 194.172 -207.407 205.802 -210.523 214.883 -205.28 Z " fill="rgb(34,36,38)"/><path d=" M 209.869 -196.628 L 209.869 -196.628 C 214.171 -194.144 215.647 -188.635 213.163 -184.333 L 213.163 -184.333 C 210.68 -180.032 205.171 -178.556 200.869 -181.039 L 200.869 -181.039 C 196.567 -183.523 195.091 -189.032 197.575 -193.333 L 197.575 -193.333 C 200.058 -197.635 205.567 -199.111 209.869 -196.628 Z " fill="rgb(255,255,255)"/><path d=" M 216.651 -212.342 L 220.115 -210.342 C 221.549 -209.514 222.041 -207.678 221.213 -206.244 L 215.213 -195.852 L 206.553 -200.852 L 212.553 -211.244 C 213.381 -212.678 215.217 -213.17 216.651 -212.342 Z " fill="rgb(34,36,38)"/><path d=" M 190.651 -167.309 L 194.115 -165.309 C 195.549 -164.481 197.385 -164.973 198.213 -166.407 L 204.213 -176.799 L 195.553 -181.799 L 189.553 -171.407 C 188.725 -169.973 189.217 -168.136 190.651 -167.309 Z " fill="rgb(34,36,38)"/><path d=" M 231.383 -190.825 L 231.383 -186.825 C 231.383 -185.169 230.039 -183.825 228.383 -183.825 L 216.383 -183.825 L 216.383 -193.825 L 228.383 -193.825 C 230.039 -193.825 231.383 -192.481 231.383 -190.825 Z " fill="rgb(34,36,38)"/><path d=" M 179.383 -190.825 L 179.383 -186.825 C 179.383 -185.169 180.727 -183.825 182.383 -183.825 L 194.383 -183.825 L 194.383 -193.825 L 182.383 -193.825 C 180.727 -193.825 179.383 -192.481 179.383 -190.825 Z " fill="rgb(34,36,38)"/><path d=" M 220.115 -167.309 L 216.651 -165.309 C 215.217 -164.481 213.381 -164.973 212.553 -166.407 L 206.553 -176.799 L 215.213 -181.799 L 221.213 -171.407 C 222.041 -169.973 221.549 -168.136 220.115 -167.309 Z " fill="rgb(34,36,38)"/><path d=" M 194.115 -212.342 L 190.651 -210.342 C 189.217 -209.514 188.725 -207.678 189.553 -206.244 L 195.553 -195.852 L 204.213 -200.852 L 198.213 -211.244 C 197.385 -212.678 195.549 -213.17 194.115 -212.342 Z " fill="rgb(34,36,38)"/></g></svg>