<?xml version="1.0" encoding="UTF-8" standalone="no"?><!-- Generator: Gravit.io --><svg xmlns="http://www.w3.org/2000/svg" xmlns:xlink="http://www.w3.org/1999/xlink" style="isolation:isolate" viewBox="-42.283 82.323 100 142" width="100pt" height="142pt"><defs><clipPath id="_clipPath_uH60CQC1fLeqvH9EsxzUwMqidgNXufc3"><rect x="-42.283" y="82.323" width="100" height="142"/></clipPath></defs><g clip-path="url(#_clipPath_uH60CQC1fLeqvH9EsxzUwMqidgNXufc3)"><rect x="-42.283" y="82.323" width="100" height="142" style="fill:rgb(13,13,13)" fill-opacity="0"/><path d=" M -32.283 82.323 L 27.717 82.323 L 57.717 112.323 L 57.717 214.323 C 57.717 219.842 53.236 224.323 47.717 224.323 L -32.283 224.323 C -37.802 224.323 -42.283 219.842 -42.283 214.323 L -42.283 92.323 C -42.283 86.804 -37.802 82.323 -32.283 82.323 Z " fill="rgb(255,255,255)"/><path d=" M 27.717 82.323 L 27.717 102.323 C 27.717 107.842 32.198 112.323 37.717 112.323 L 57.717 112.323 L 27.717 82.323 Z " fill="rgb(204,204,204)"/><path d=" M -17.25 158.96 L 32.717 158.96 C 38.236 158.96 42.717 163.44 42.717 168.96 L 42.717 196.96 C 42.717 202.479 38.236 206.96 32.717 206.96 L -17.25 206.96 C -22.769 206.96 -27.25 202.479 -27.25 196.96 L -27.25 168.96 C -27.25 163.44 -22.769 158.96 -17.25 158.96 Z " fill="rgb(0,183,149)"/><clipPath id="_clipPath_cmsbUg4Qhe5o5VFaADdAd6IzoewLc3RI"><path d=" M -17.25 158.96 L 32.717 158.96 C 38.236 158.96 42.717 163.44 42.717 168.96 L 42.717 196.96 C 42.717 202.479 38.236 206.96 32.717 206.96 L -17.25 206.96 C -22.769 206.96 -27.25 202.479 -27.25 196.96 L -27.25 168.96 C -27.25 163.44 -22.769 158.96 -17.25 158.96 Z " fill="rgb(255,255,255)"/></clipPath><g clip-path="url(#_clipPath_cmsbUg4Qhe5o5VFaADdAd6IzoewLc3RI)"><g><g><path d=" M -17.267 163.96 L 32.701 163.96 C 35.46 163.96 37.701 166.2 37.701 168.96 L 37.701 196.96 C 37.701 199.719 35.46 201.96 32.701 201.96 L -17.267 201.96 C -20.026 201.96 -22.267 199.719 -22.267 196.96 L -22.267 168.96 C -22.267 166.2 -20.026 163.96 -17.267 163.96 Z " fill="rgb(255,255,255)"/><path d=" M -7.267 176.96 L -27.267 206.96 L 12.733 206.96 L -7.267 176.96 Z " fill="rgb(0,183,149)"/><path d=" M 17.733 186.96 L 2.733 206.96 L 32.733 206.96 L 17.733 186.96 Z " fill="rgb(0,183,149)"/><path d=" M 27.717 168.96 L 27.717 168.96 C 24.957 168.96 22.717 171.2 22.717 173.96 L 22.717 173.96 C 22.717 176.719 24.957 178.96 27.717 178.96 L 27.717 178.96 C 30.477 178.96 32.717 176.719 32.717 173.96 L 32.717 173.96 C 32.717 171.2 30.477 168.96 27.717 168.96 Z " fill="rgb(0,183,149)"/></g></g></g><path d=" M -8.647 145.298 L -8.647 138.975 L -14.885 138.975 L -14.885 134.873 L -2.683 134.873 L -2.683 150.493 L -7.126 150.493 L -7.964 148.408 L -7.964 148.408 Q -8.323 149.075 -8.972 149.553 L -8.972 149.553 L -8.972 149.553 Q -9.621 150.032 -10.467 150.348 L -10.467 150.348 L -10.467 150.348 Q -11.313 150.664 -12.296 150.818 L -12.296 150.818 L -12.296 150.818 Q -13.279 150.972 -14.321 150.972 L -14.321 150.972 L -14.321 150.972 Q -17.073 150.972 -19.277 150.1 L -19.277 150.1 L -19.277 150.1 Q -21.482 149.229 -23.028 147.477 L -23.028 147.477 L -23.028 147.477 Q -24.575 145.725 -25.413 143.085 L -25.413 143.085 L -25.413 143.085 Q -26.25 140.444 -26.25 136.924 L -26.25 136.924 L -26.25 136.924 Q -26.25 133.54 -25.344 130.814 L -25.344 130.814 L -25.344 130.814 Q -24.438 128.088 -22.687 126.166 L -22.687 126.166 L -22.687 126.166 Q -20.935 124.243 -18.371 123.209 L -18.371 123.209 L -18.371 123.209 Q -15.808 122.175 -12.493 122.175 L -12.493 122.175 L -12.493 122.175 Q -10.681 122.175 -9.288 122.415 L -9.288 122.415 L -9.288 122.415 Q -7.895 122.654 -6.914 123.1 L -6.914 123.1 L -6.914 123.1 Q -5.932 123.547 -5.223 123.852 L -5.223 123.852 L -5.223 123.852 Q -4.514 124.158 -4.101 124.38 L -4.101 124.38 L -6.05 128.909 L -6.05 128.909 Q -6.834 128.607 -7.638 128.297 L -7.638 128.297 L -7.638 128.297 Q -8.442 127.987 -9.22 127.687 L -9.22 127.687 L -9.22 127.687 Q -9.997 127.388 -10.775 127.225 L -10.775 127.225 L -10.775 127.225 Q -11.553 127.063 -12.322 127.063 L -12.322 127.063 L -12.322 127.063 Q -14.014 127.063 -15.338 127.712 L -15.338 127.712 L -15.338 127.712 Q -16.663 128.362 -17.577 129.618 L -17.577 129.618 L -17.577 129.618 Q -18.491 130.874 -18.97 132.72 L -18.97 132.72 L -18.97 132.72 Q -19.448 134.565 -19.448 136.975 L -19.448 136.975 L -19.448 136.975 Q -19.448 138.838 -19.115 140.496 L -19.115 140.496 L -19.115 140.496 Q -18.782 142.153 -18.081 143.392 L -18.081 143.392 L -18.081 143.392 Q -17.38 144.631 -16.304 145.358 L -16.304 145.358 L -16.304 145.358 Q -15.227 146.084 -13.757 146.084 L -13.757 146.084 L -13.757 146.084 Q -12.288 146.084 -11.048 145.862 L -11.048 145.862 L -11.048 145.862 Q -9.809 145.64 -8.647 145.298 L -8.647 145.298 L -8.647 145.298 Z  M 3.231 147.4 L 6.17 147.4 L 6.17 125.747 L 3.231 125.747 L 3.231 122.637 L 15.98 122.637 L 15.98 125.747 L 13.006 125.747 L 13.006 147.4 L 15.98 147.4 L 15.98 150.493 L 3.231 150.493 L 3.231 147.4 L 3.231 147.4 Z  M 28.815 138.206 L 28.815 150.493 L 22.013 150.493 L 22.013 122.637 L 41.358 122.637 L 41.358 126.926 L 28.815 126.926 L 28.815 134.019 L 39.786 134.019 L 39.786 138.206 L 28.815 138.206 L 28.815 138.206 Z " fill="rgb(0,183,149)"/></g></svg>