<?xml version="1.0" encoding="UTF-8" standalone="no"?><!-- Generator: Gravit.io --><svg xmlns="http://www.w3.org/2000/svg" xmlns:xlink="http://www.w3.org/1999/xlink" style="isolation:isolate" viewBox="154.9 2.3 100 142" width="100pt" height="142pt"><defs><clipPath id="_clipPath_YvIkW5mjXj25LTQeQQC4YbWZ6FFATGyq"><rect x="154.9" y="2.3" width="100" height="142"/></clipPath></defs><g clip-path="url(#_clipPath_YvIkW5mjXj25LTQeQQC4YbWZ6FFATGyq)"><rect x="154.9" y="2.3" width="100" height="142" style="fill:rgb(13,13,13)" fill-opacity="0"/><path d=" M 164.9 2.3 L 224.9 2.3 L 254.9 32.3 L 254.9 134.3 C 254.9 139.819 250.419 144.3 244.9 144.3 L 164.9 144.3 C 159.381 144.3 154.9 139.819 154.9 134.3 L 154.9 12.3 C 154.9 6.781 159.381 2.3 164.9 2.3 Z " fill="rgb(255,255,255)"/><path d=" M 224.9 2.3 L 224.9 22.3 C 224.9 27.819 229.381 32.3 234.9 32.3 L 254.9 32.3 L 224.9 2.3 Z " fill="rgb(204,204,204)"/><path d=" M 181.832 67.093 L 181.832 58.995 L 175.678 58.995 L 175.678 67.093 L 171.197 67.093 L 171.197 48.787 L 175.678 48.787 L 175.678 56.244 L 181.832 56.244 L 181.832 48.787 L 186.313 48.787 L 186.313 67.093 L 181.832 67.093 L 181.832 67.093 Z  M 201.631 51.606 L 197.027 51.606 L 197.027 67.093 L 192.546 67.093 L 192.546 51.606 L 187.863 51.606 L 187.863 48.787 L 201.631 48.787 L 201.631 51.606 L 201.631 51.606 Z  M 210.84 67.093 L 206.865 54.919 L 206.865 67.093 L 203.181 67.093 L 203.181 48.787 L 208.347 48.787 L 212.795 62.14 L 217.433 48.787 L 222.61 48.787 L 222.61 67.093 L 218.926 67.093 L 218.926 54.919 L 214.996 67.093 L 210.84 67.093 L 210.84 67.093 Z  M 238.479 67.093 L 226.159 67.093 L 226.159 48.787 L 230.629 48.787 L 230.629 64.274 L 238.479 64.274 L 238.479 67.093 L 238.479 67.093 Z " fill="rgb(255,136,0)"/><path d=" M 169.933 103.937 L 189.9 88.937 L 189.9 98.937 L 177.9 107.937 L 189.9 116.937 L 189.9 126.937 L 169.933 111.937 L 169.933 103.937 Z " fill="rgb(255,136,0)"/><path d=" M 239.9 103.937 L 219.933 88.937 L 219.933 98.937 L 231.933 107.937 L 219.933 116.937 L 219.933 126.937 L 239.9 111.937 L 239.9 103.937 Z " fill="rgb(255,136,0)"/><path d=" M 216.9 88.937 L 201.9 126.937 L 193.9 126.937 L 208.9 88.937 L 216.9 88.937 Z " fill="rgb(255,136,0)"/></g></svg>