<?xml version="1.0" encoding="UTF-8" standalone="no"?><!-- Generator: Gravit.io --><svg xmlns="http://www.w3.org/2000/svg" xmlns:xlink="http://www.w3.org/1999/xlink" style="isolation:isolate" viewBox="218.588 -24.19 100 142" width="100pt" height="142pt"><defs><clipPath id="_clipPath_AezleSSF3Ls2kfLygT1SZOqJR1N3yTML"><rect x="218.588" y="-24.19" width="100" height="142"/></clipPath></defs><g clip-path="url(#_clipPath_AezleSSF3Ls2kfLygT1SZOqJR1N3yTML)"><rect x="218.588" y="-24.19" width="100" height="142" style="fill:rgb(13,13,13)" fill-opacity="0"/><path d=" M 228.588 -24.19 L 288.588 -24.19 L 318.588 5.81 L 318.588 107.81 C 318.588 113.329 314.107 117.81 308.588 117.81 L 228.588 117.81 C 223.069 117.81 218.588 113.329 218.588 107.81 L 218.588 -14.19 C 218.588 -19.709 223.069 -24.19 228.588 -24.19 Z " fill="rgb(255,255,255)"/><path d=" M 288.588 -24.19 L 288.588 -4.19 C 288.588 1.329 293.069 5.81 298.588 5.81 L 318.588 5.81 L 288.588 -24.19 Z " fill="rgb(204,204,204)"/><path d=" M 233.621 77.447 L 253.588 62.447 L 253.588 72.447 L 241.588 81.447 L 253.588 90.447 L 253.588 100.447 L 233.621 85.447 L 233.621 77.447 Z " fill="rgb(255,136,0)"/><path d=" M 303.588 77.447 L 283.621 62.447 L 283.621 72.447 L 295.621 81.447 L 283.621 90.447 L 283.621 100.447 L 303.588 85.447 L 303.588 77.447 Z " fill="rgb(255,136,0)"/><path d=" M 280.588 62.447 L 265.588 100.447 L 257.588 100.447 L 272.588 62.447 L 280.588 62.447 Z " fill="rgb(255,136,0)"/><path d=" M 247.93 42.573 L 247.93 32.012 L 239.903 32.012 L 239.903 42.573 L 234.058 42.573 L 234.058 18.696 L 239.903 18.696 L 239.903 28.423 L 247.93 28.423 L 247.93 18.696 L 253.775 18.696 L 253.775 42.573 L 247.93 42.573 L 247.93 42.573 Z  M 273.755 22.373 L 267.749 22.373 L 267.749 42.573 L 261.905 42.573 L 261.905 22.373 L 255.796 22.373 L 255.796 18.696 L 273.755 18.696 L 273.755 22.373 L 273.755 22.373 Z  M 285.767 42.573 L 280.581 26.694 L 280.581 42.573 L 275.777 42.573 L 275.777 18.696 L 282.515 18.696 L 288.316 36.113 L 294.366 18.696 L 301.118 18.696 L 301.118 42.573 L 296.314 42.573 L 296.314 26.694 L 291.187 42.573 L 285.767 42.573 L 285.767 42.573 Z " fill="rgb(255,136,0)"/></g></svg>