<?xml version="1.0" encoding="UTF-8" standalone="no"?><!-- Generator: Gravit.io --><svg xmlns="http://www.w3.org/2000/svg" xmlns:xlink="http://www.w3.org/1999/xlink" style="isolation:isolate" viewBox="-40.072 17.233 100 142" width="100pt" height="142pt"><defs><clipPath id="_clipPath_XCQSvHfBUMqIeG38CPauq5UrCdsA9FSE"><rect x="-40.072" y="17.233" width="100" height="142"/></clipPath></defs><g clip-path="url(#_clipPath_XCQSvHfBUMqIeG38CPauq5UrCdsA9FSE)"><rect x="-40.072" y="17.233" width="100" height="142" style="fill:rgb(13,13,13)" fill-opacity="0"/><path d=" M -30.072 17.233 L 29.928 17.233 L 59.928 47.233 L 59.928 149.233 C 59.928 154.752 55.447 159.233 49.928 159.233 L -30.072 159.233 C -35.592 159.233 -40.072 154.752 -40.072 149.233 L -40.072 27.233 C -40.072 21.713 -35.592 17.233 -30.072 17.233 Z " fill="rgb(255,255,255)"/><path d=" M 29.928 17.233 L 29.928 37.233 C 29.928 42.752 34.408 47.233 39.928 47.233 L 59.928 47.233 L 29.928 17.233 Z " fill="rgb(204,204,204)"/><path d=" M -22.936 86.924 L -24.68 82.481 L -24.68 82.481 Q -23.09 82.276 -22.022 81.943 L -22.022 81.943 L -22.022 81.943 Q -20.954 81.609 -20.305 80.943 L -20.305 80.943 L -20.305 80.943 Q -19.655 80.276 -19.382 79.2 L -19.382 79.2 L -19.382 79.2 Q -19.108 78.123 -19.108 76.431 L -19.108 76.431 L -19.108 57.547 L -12.272 57.547 L -12.272 76.465 L -12.272 76.465 Q -12.272 79.234 -12.913 81.191 L -12.913 81.191 L -12.913 81.191 Q -13.554 83.147 -14.879 84.403 L -14.879 84.403 L -14.879 84.403 Q -16.203 85.66 -18.211 86.258 L -18.211 86.258 L -18.211 86.258 Q -20.219 86.856 -22.936 86.924 L -22.936 86.924 L -22.936 86.924 Z  M 14.507 66.929 L 14.507 66.929 L 14.507 66.929 Q 14.507 69.595 13.516 71.321 L 13.516 71.321 L 13.516 71.321 Q 12.525 73.047 10.722 74.038 L 10.722 74.038 L 10.722 74.038 Q 8.919 75.03 6.407 75.414 L 6.407 75.414 L 6.407 75.414 Q 3.895 75.799 0.853 75.799 L 0.853 75.799 L -0.053 75.799 L -0.053 85.403 L -6.872 85.403 L -6.872 57.547 L 1.331 57.547 L 1.331 57.547 Q 4.407 57.547 6.834 57.983 L 6.834 57.983 L 6.834 57.983 Q 9.261 58.418 10.944 59.495 L 10.944 59.495 L 10.944 59.495 Q 12.628 60.572 13.542 62.383 L 13.542 62.383 L 13.542 62.383 Q 14.456 64.195 14.507 66.929 Z  M -0.053 71.8 L 0.836 71.8 L 0.836 71.8 Q 2.254 71.8 3.51 71.586 L 3.51 71.586 L 3.51 71.586 Q 4.766 71.372 5.706 70.826 L 5.706 70.826 L 5.706 70.826 Q 6.646 70.279 7.193 69.347 L 7.193 69.347 L 7.193 69.347 Q 7.74 68.416 7.74 66.98 L 7.74 66.98 L 7.74 66.98 Q 7.74 65.494 7.321 64.494 L 7.321 64.494 L 7.321 64.494 Q 6.903 63.494 6.091 62.904 L 6.091 62.904 L 6.091 62.904 Q 5.279 62.315 4.091 62.067 L 4.091 62.067 L 4.091 62.067 Q 2.903 61.819 1.348 61.819 L 1.348 61.819 L -0.053 61.819 L -0.053 71.8 L -0.053 71.8 Z  M 34.486 80.208 L 34.486 73.885 L 28.248 73.885 L 28.248 69.783 L 40.45 69.783 L 40.45 85.403 L 36.007 85.403 L 35.169 83.318 L 35.169 83.318 Q 34.81 83.985 34.161 84.463 L 34.161 84.463 L 34.161 84.463 Q 33.511 84.942 32.665 85.258 L 32.665 85.258 L 32.665 85.258 Q 31.819 85.574 30.837 85.728 L 30.837 85.728 L 30.837 85.728 Q 29.854 85.882 28.812 85.882 L 28.812 85.882 L 28.812 85.882 Q 26.06 85.882 23.856 85.01 L 23.856 85.01 L 23.856 85.01 Q 21.651 84.139 20.104 82.387 L 20.104 82.387 L 20.104 82.387 Q 18.558 80.635 17.72 77.995 L 17.72 77.995 L 17.72 77.995 Q 16.883 75.354 16.883 71.834 L 16.883 71.834 L 16.883 71.834 Q 16.883 68.45 17.789 65.724 L 17.789 65.724 L 17.789 65.724 Q 18.694 62.998 20.446 61.076 L 20.446 61.076 L 20.446 61.076 Q 22.198 59.153 24.761 58.119 L 24.761 58.119 L 24.761 58.119 Q 27.325 57.085 30.64 57.085 L 30.64 57.085 L 30.64 57.085 Q 32.452 57.085 33.845 57.325 L 33.845 57.325 L 33.845 57.325 Q 35.237 57.564 36.219 58.01 L 36.219 58.01 L 36.219 58.01 Q 37.201 58.457 37.91 58.762 L 37.91 58.762 L 37.91 58.762 Q 38.619 59.068 39.031 59.29 L 39.031 59.29 L 37.083 63.819 L 37.083 63.819 Q 36.299 63.517 35.495 63.207 L 35.495 63.207 L 35.495 63.207 Q 34.691 62.897 33.913 62.597 L 33.913 62.597 L 33.913 62.597 Q 33.135 62.298 32.358 62.135 L 32.358 62.135 L 32.358 62.135 Q 31.58 61.973 30.811 61.973 L 30.811 61.973 L 30.811 61.973 Q 29.119 61.973 27.795 62.622 L 27.795 62.622 L 27.795 62.622 Q 26.47 63.272 25.556 64.528 L 25.556 64.528 L 25.556 64.528 Q 24.642 65.784 24.163 67.63 L 24.163 67.63 L 24.163 67.63 Q 23.685 69.475 23.685 71.885 L 23.685 71.885 L 23.685 71.885 Q 23.685 73.748 24.018 75.406 L 24.018 75.406 L 24.018 75.406 Q 24.351 77.063 25.052 78.302 L 25.052 78.302 L 25.052 78.302 Q 25.753 79.541 26.829 80.268 L 26.829 80.268 L 26.829 80.268 Q 27.906 80.994 29.376 80.994 L 29.376 80.994 L 29.376 80.994 Q 30.845 80.994 32.084 80.772 L 32.084 80.772 L 32.084 80.772 Q 33.323 80.55 34.486 80.208 L 34.486 80.208 L 34.486 80.208 Z " fill="rgb(244,0,0)"/><path d=" M -15.04 93.869 L 34.928 93.869 C 40.447 93.869 44.928 98.35 44.928 103.869 L 44.928 131.869 C 44.928 137.388 40.447 141.869 34.928 141.869 L -15.04 141.869 C -20.559 141.869 -25.04 137.388 -25.04 131.869 L -25.04 103.869 C -25.04 98.35 -20.559 93.869 -15.04 93.869 Z " fill="rgb(244,0,0)"/><clipPath id="_clipPath_dQXzASMBsUSDODzorxXcpqtpqtRwcxnh"><path d=" M -15.04 93.869 L 34.928 93.869 C 40.447 93.869 44.928 98.35 44.928 103.869 L 44.928 131.869 C 44.928 137.388 40.447 141.869 34.928 141.869 L -15.04 141.869 C -20.559 141.869 -25.04 137.388 -25.04 131.869 L -25.04 103.869 C -25.04 98.35 -20.559 93.869 -15.04 93.869 Z " fill="rgb(255,255,255)"/></clipPath><g clip-path="url(#_clipPath_dQXzASMBsUSDODzorxXcpqtpqtRwcxnh)"><g><path d=" M -15.056 98.869 L 34.911 98.869 C 37.671 98.869 39.911 101.11 39.911 103.869 L 39.911 131.869 C 39.911 134.629 37.671 136.869 34.911 136.869 L -15.056 136.869 C -17.816 136.869 -20.056 134.629 -20.056 131.869 L -20.056 103.869 C -20.056 101.11 -17.816 98.869 -15.056 98.869 Z " fill="rgb(255,255,255)"/><path d=" M -5.056 111.869 L -25.056 141.869 L 14.944 141.869 L -5.056 111.869 Z " fill="rgb(244,0,0)"/><path d=" M 19.944 121.869 L 4.944 141.869 L 34.944 141.869 L 19.944 121.869 Z " fill="rgb(244,0,0)"/><path d=" M 29.928 103.869 L 29.928 103.869 C 27.168 103.869 24.928 106.11 24.928 108.869 L 24.928 108.869 C 24.928 111.629 27.168 113.869 29.928 113.869 L 29.928 113.869 C 32.687 113.869 34.928 111.629 34.928 108.869 L 34.928 108.869 C 34.928 106.11 32.687 103.869 29.928 103.869 Z " fill="rgb(244,0,0)"/></g></g></g></svg>