<?xml version="1.0" encoding="UTF-8" standalone="no"?><!-- Generator: Gravit.io --><svg xmlns="http://www.w3.org/2000/svg" xmlns:xlink="http://www.w3.org/1999/xlink" style="isolation:isolate" viewBox="216.491 -43.315 100 142" width="100pt" height="142pt"><defs><clipPath id="_clipPath_aWK6h5Fh5zwcG0dVu1hGEX9rOPC6VFmn"><rect x="216.491" y="-43.315" width="100" height="142"/></clipPath></defs><g clip-path="url(#_clipPath_aWK6h5Fh5zwcG0dVu1hGEX9rOPC6VFmn)"><rect x="216.491" y="-43.315" width="100" height="142" style="fill:rgb(13,13,13)" fill-opacity="0"/><path d=" M 226.491 -43.315 L 286.491 -43.315 L 316.491 -13.315 L 316.491 88.685 C 316.491 94.204 312.01 98.685 306.491 98.685 L 226.491 98.685 C 220.972 98.685 216.491 94.204 216.491 88.685 L 216.491 -33.315 C 216.491 -38.834 220.972 -43.315 226.491 -43.315 Z " fill="rgb(255,255,255)"/><path d=" M 286.491 -43.315 L 286.491 -23.315 C 286.491 -17.796 290.972 -13.315 296.491 -13.315 L 316.491 -13.315 L 286.491 -43.315 Z " fill="rgb(204,204,204)"/><path d=" M 251.158 7.613 L 251.158 7.613 L 251.158 7.613 Q 251.158 9.898 250.308 11.378 L 250.308 11.378 L 250.308 11.378 Q 249.458 12.857 247.913 13.707 L 247.913 13.707 L 247.913 13.707 Q 246.367 14.557 244.214 14.886 L 244.214 14.886 L 244.214 14.886 Q 242.061 15.216 239.453 15.216 L 239.453 15.216 L 238.677 15.216 L 238.677 23.448 L 232.832 23.448 L 232.832 -0.429 L 239.864 -0.429 L 239.864 -0.429 Q 242.5 -0.429 244.58 -0.055 L 244.58 -0.055 L 244.58 -0.055 Q 246.66 0.318 248.103 1.241 L 248.103 1.241 L 248.103 1.241 Q 249.546 2.164 250.33 3.717 L 250.33 3.717 L 250.33 3.717 Q 251.114 5.269 251.158 7.613 Z  M 238.677 11.788 L 239.439 11.788 L 239.439 11.788 Q 240.655 11.788 241.731 11.605 L 241.731 11.605 L 241.731 11.605 Q 242.808 11.422 243.614 10.953 L 243.614 10.953 L 243.614 10.953 Q 244.419 10.484 244.888 9.686 L 244.888 9.686 L 244.888 9.686 Q 245.357 8.888 245.357 7.657 L 245.357 7.657 L 245.357 7.657 Q 245.357 6.383 244.998 5.526 L 244.998 5.526 L 244.998 5.526 Q 244.639 4.669 243.943 4.163 L 243.943 4.163 L 243.943 4.163 Q 243.247 3.658 242.229 3.446 L 242.229 3.446 L 242.229 3.446 Q 241.211 3.233 239.878 3.233 L 239.878 3.233 L 238.677 3.233 L 238.677 11.788 L 238.677 11.788 Z  M 274.185 23.448 L 268.208 23.448 L 259.126 7.686 L 259.126 23.448 L 253.955 23.448 L 253.955 -0.429 L 260.108 -0.429 L 269.029 15.099 L 269.029 -0.429 L 274.185 -0.429 L 274.185 23.448 L 274.185 23.448 Z  M 293.125 18.995 L 293.125 13.575 L 287.779 13.575 L 287.779 10.059 L 298.238 10.059 L 298.238 23.448 L 294.429 23.448 L 293.711 21.661 L 293.711 21.661 Q 293.404 22.232 292.847 22.642 L 292.847 22.642 L 292.847 22.642 Q 292.29 23.053 291.565 23.324 L 291.565 23.324 L 291.565 23.324 Q 290.84 23.595 289.998 23.726 L 289.998 23.726 L 289.998 23.726 Q 289.156 23.858 288.262 23.858 L 288.262 23.858 L 288.262 23.858 Q 285.904 23.858 284.014 23.111 L 284.014 23.111 L 284.014 23.111 Q 282.124 22.364 280.799 20.863 L 280.799 20.863 L 280.799 20.863 Q 279.473 19.361 278.755 17.098 L 278.755 17.098 L 278.755 17.098 Q 278.037 14.835 278.037 11.817 L 278.037 11.817 L 278.037 11.817 Q 278.037 8.917 278.814 6.58 L 278.814 6.58 L 278.814 6.58 Q 279.59 4.244 281.092 2.596 L 281.092 2.596 L 281.092 2.596 Q 282.593 0.948 284.79 0.062 L 284.79 0.062 L 284.79 0.062 Q 286.988 -0.824 289.829 -0.824 L 289.829 -0.824 L 289.829 -0.824 Q 291.382 -0.824 292.576 -0.619 L 292.576 -0.619 L 292.576 -0.619 Q 293.77 -0.414 294.611 -0.031 L 294.611 -0.031 L 294.611 -0.031 Q 295.453 0.351 296.06 0.613 L 296.06 0.613 L 296.06 0.613 Q 296.668 0.875 297.022 1.065 L 297.022 1.065 L 295.352 4.947 L 295.352 4.947 Q 294.68 4.688 293.991 4.423 L 293.991 4.423 L 293.991 4.423 Q 293.302 4.157 292.635 3.9 L 292.635 3.9 L 292.635 3.9 Q 291.968 3.643 291.302 3.504 L 291.302 3.504 L 291.302 3.504 Q 290.635 3.365 289.976 3.365 L 289.976 3.365 L 289.976 3.365 Q 288.526 3.365 287.39 3.922 L 287.39 3.922 L 287.39 3.922 Q 286.255 4.478 285.471 5.555 L 285.471 5.555 L 285.471 5.555 Q 284.688 6.632 284.278 8.214 L 284.278 8.214 L 284.278 8.214 Q 283.867 9.796 283.867 11.861 L 283.867 11.861 L 283.867 11.861 Q 283.867 13.458 284.153 14.879 L 284.153 14.879 L 284.153 14.879 Q 284.439 16.3 285.039 17.362 L 285.039 17.362 L 285.039 17.362 Q 285.64 18.424 286.563 19.046 L 286.563 19.046 L 286.563 19.046 Q 287.486 19.669 288.745 19.669 L 288.745 19.669 L 288.745 19.669 Q 290.005 19.669 291.067 19.478 L 291.067 19.478 L 291.067 19.478 Q 292.129 19.288 293.125 18.995 L 293.125 18.995 L 293.125 18.995 Z " fill="rgb(102,0,198)"/><path d=" M 241.524 33.322 L 291.491 33.322 C 297.01 33.322 301.491 37.802 301.491 43.322 L 301.491 71.322 C 301.491 76.841 297.01 81.322 291.491 81.322 L 241.524 81.322 C 236.005 81.322 231.524 76.841 231.524 71.322 L 231.524 43.322 C 231.524 37.802 236.005 33.322 241.524 33.322 Z " fill="rgb(102,0,198)"/><clipPath id="_clipPath_8SWaVoV1adQnIVUst1kUs2JlvFREqB4W"><path d=" M 241.524 33.322 L 291.491 33.322 C 297.01 33.322 301.491 37.802 301.491 43.322 L 301.491 71.322 C 301.491 76.841 297.01 81.322 291.491 81.322 L 241.524 81.322 C 236.005 81.322 231.524 76.841 231.524 71.322 L 231.524 43.322 C 231.524 37.802 236.005 33.322 241.524 33.322 Z " fill="rgb(255,255,255)"/></clipPath><g clip-path="url(#_clipPath_8SWaVoV1adQnIVUst1kUs2JlvFREqB4W)"><g><path d=" M 241.507 38.322 L 291.475 38.322 C 294.234 38.322 296.475 40.562 296.475 43.322 L 296.475 71.322 C 296.475 74.081 294.234 76.322 291.475 76.322 L 241.507 76.322 C 238.748 76.322 236.507 74.081 236.507 71.322 L 236.507 43.322 C 236.507 40.562 238.748 38.322 241.507 38.322 Z " fill="rgb(255,255,255)"/><path d=" M 251.507 51.322 L 231.507 81.322 L 271.507 81.322 L 251.507 51.322 Z " fill="rgb(102,0,198)"/><path d=" M 276.507 61.322 L 261.507 81.322 L 291.507 81.322 L 276.507 61.322 Z " fill="rgb(102,0,198)"/><path d=" M 286.491 43.322 L 286.491 43.322 C 283.731 43.322 281.491 45.562 281.491 48.322 L 281.491 48.322 C 281.491 51.081 283.731 53.322 286.491 53.322 L 286.491 53.322 C 289.251 53.322 291.491 51.081 291.491 48.322 L 291.491 48.322 C 291.491 45.562 289.251 43.322 286.491 43.322 Z " fill="rgb(102,0,198)"/></g></g></g></svg>