<?xml version="1.0" encoding="UTF-8" standalone="no"?><!-- Generator: Gravit.io --><svg xmlns="http://www.w3.org/2000/svg" xmlns:xlink="http://www.w3.org/1999/xlink" style="isolation:isolate" viewBox="34.364 26.718 100 142" width="100pt" height="142pt"><defs><clipPath id="_clipPath_uXFLBwxKvz6GbHBYg5NxkXXsjqeB2lRQ"><rect x="34.364" y="26.718" width="100" height="142"/></clipPath></defs><g clip-path="url(#_clipPath_uXFLBwxKvz6GbHBYg5NxkXXsjqeB2lRQ)"><rect x="34.364" y="26.718" width="100" height="142" style="fill:rgb(13,13,13)" fill-opacity="0"/><path d=" M 44.364 26.718 L 104.364 26.718 L 134.364 56.718 L 134.364 158.718 C 134.364 164.237 129.883 168.718 124.364 168.718 L 44.364 168.718 C 38.845 168.718 34.364 164.237 34.364 158.718 L 34.364 36.718 C 34.364 31.199 38.845 26.718 44.364 26.718 Z " fill="rgb(255,255,255)"/><path d=" M 104.364 26.718 L 104.364 46.718 C 104.364 52.237 108.845 56.718 114.364 56.718 L 134.364 56.718 L 104.364 26.718 Z " fill="rgb(204,204,204)"/><path d=" M 82.641 101.41 L 82.641 101.41 L 82.641 101.41 Q 86.509 101.41 88.286 100.433 L 88.286 100.433 L 88.286 100.433 Q 90.063 99.457 90.063 97.582 L 90.063 97.582 L 90.063 97.582 Q 90.063 96.8 89.809 96.078 L 89.809 96.078 L 89.809 96.078 Q 89.555 95.355 88.774 94.789 L 88.774 94.789 L 88.774 94.789 Q 87.993 94.222 86.548 93.89 L 86.548 93.89 L 86.548 93.89 Q 85.102 93.558 82.68 93.558 L 82.68 93.558 L 82.68 93.558 Q 80.102 93.558 78.638 93.929 L 78.638 93.929 L 78.638 93.929 Q 77.173 94.3 76.47 94.867 L 76.47 94.867 L 76.47 94.867 Q 75.766 95.433 75.591 96.136 L 75.591 96.136 L 75.591 96.136 Q 75.415 96.839 75.415 97.503 L 75.415 97.503 L 75.415 97.503 Q 75.415 99.496 77.055 100.453 L 77.055 100.453 L 77.055 100.453 Q 78.696 101.41 82.641 101.41 Z  M 99.516 70.433 L 95.688 78.871 L 95.688 78.871 Q 95.649 78.871 95.083 78.519 L 95.083 78.519 L 95.083 78.519 Q 94.516 78.168 93.559 77.621 L 93.559 77.621 L 93.559 77.621 Q 92.602 77.074 91.313 76.468 L 91.313 76.468 L 91.313 76.468 Q 90.024 75.863 88.579 75.316 L 88.579 75.316 L 88.579 75.316 Q 87.134 74.769 85.591 74.418 L 85.591 74.418 L 85.591 74.418 Q 84.048 74.066 82.602 74.066 L 82.602 74.066 L 82.602 74.066 Q 80.024 74.066 78.579 74.378 L 78.579 74.378 L 78.579 74.378 Q 77.134 74.691 76.45 75.14 L 76.45 75.14 L 76.45 75.14 Q 75.766 75.589 75.63 76.117 L 75.63 76.117 L 75.63 76.117 Q 75.493 76.644 75.493 77.074 L 75.493 77.074 L 75.493 77.074 Q 75.493 77.386 75.552 77.796 L 75.552 77.796 L 75.552 77.796 Q 75.61 78.207 76.079 78.734 L 76.079 78.734 L 76.079 78.734 Q 76.548 79.261 77.602 79.886 L 77.602 79.886 L 77.602 79.886 Q 78.657 80.511 80.61 81.214 L 80.61 81.214 L 80.61 81.214 Q 85.298 82.816 88.657 84.183 L 88.657 84.183 L 88.657 84.183 Q 92.016 85.55 94.282 86.82 L 94.282 86.82 L 94.282 86.82 Q 96.548 88.089 97.876 89.32 L 97.876 89.32 L 97.876 89.32 Q 99.204 90.55 99.907 91.859 L 99.907 91.859 L 99.907 91.859 Q 100.61 93.168 100.805 94.632 L 100.805 94.632 L 100.805 94.632 Q 101.001 96.097 101.001 97.816 L 101.001 97.816 L 101.001 97.816 Q 101.001 99.3 100.552 100.785 L 100.552 100.785 L 100.552 100.785 Q 100.102 102.269 99.223 103.558 L 99.223 103.558 L 99.223 103.558 Q 98.345 104.847 96.977 105.843 L 96.977 105.843 L 96.977 105.843 Q 95.61 106.839 93.813 107.386 L 93.813 107.386 L 93.813 107.386 Q 95.923 108.324 97.329 109.613 L 97.329 109.613 L 97.329 109.613 Q 98.735 110.902 99.575 112.386 L 99.575 112.386 L 99.575 112.386 Q 100.415 113.871 100.747 115.433 L 100.747 115.433 L 100.747 115.433 Q 101.079 116.996 101.079 118.48 L 101.079 118.48 L 101.079 118.48 Q 101.079 121.449 100.259 123.617 L 100.259 123.617 L 100.259 123.617 Q 99.438 125.785 98.013 127.308 L 98.013 127.308 L 98.013 127.308 Q 96.587 128.832 94.692 129.789 L 94.692 129.789 L 94.692 129.789 Q 92.798 130.746 90.669 131.273 L 90.669 131.273 L 90.669 131.273 Q 88.54 131.8 86.294 131.996 L 86.294 131.996 L 86.294 131.996 Q 84.048 132.191 81.938 132.191 L 81.938 132.191 L 81.938 132.191 Q 79.79 132.191 77.687 131.587 L 77.687 131.587 L 77.687 131.587 Q 75.584 130.983 73.605 130.415 L 73.605 130.415 L 73.605 130.415 Q 71.626 129.847 69.966 129.007 L 69.966 129.007 L 69.966 129.007 Q 68.305 128.168 67.095 127.484 L 67.095 127.484 L 67.095 127.484 Q 65.884 126.8 65.22 126.351 L 65.22 126.351 L 65.22 126.351 Q 64.555 125.902 64.595 125.941 L 64.595 125.941 L 68.579 116.918 L 68.579 116.918 Q 68.618 116.918 69.184 117.308 L 69.184 117.308 L 69.184 117.308 Q 69.751 117.699 70.708 118.304 L 70.708 118.304 L 70.708 118.304 Q 71.665 118.91 72.934 119.593 L 72.934 119.593 L 72.934 119.593 Q 74.204 120.277 75.686 120.774 L 75.686 120.774 L 75.686 120.774 Q 77.167 121.271 78.654 121.77 L 78.654 121.77 L 78.654 121.77 Q 80.141 122.269 81.587 122.269 L 81.587 122.269 L 81.587 122.269 Q 89.79 122.269 89.79 117.582 L 89.79 117.582 L 89.79 117.582 Q 89.79 116.566 89.497 115.843 L 89.497 115.843 L 89.497 115.843 Q 89.204 115.121 88.54 114.535 L 88.54 114.535 L 88.54 114.535 Q 87.876 113.949 86.743 113.46 L 86.743 113.46 L 86.743 113.46 Q 85.61 112.972 83.97 112.386 L 83.97 112.386 L 77.563 110.199 L 77.563 110.199 Q 73.462 108.793 70.942 107.445 L 70.942 107.445 L 70.942 107.445 Q 68.423 106.097 67.055 104.535 L 67.055 104.535 L 67.055 104.535 Q 65.688 102.972 65.22 101.078 L 65.22 101.078 L 65.22 101.078 Q 64.751 99.183 64.751 96.683 L 64.751 96.683 L 64.751 96.683 Q 64.751 95.589 65.122 94.183 L 65.122 94.183 L 65.122 94.183 Q 65.493 92.777 66.352 91.429 L 66.352 91.429 L 66.352 91.429 Q 67.212 90.082 68.618 88.929 L 68.618 88.929 L 68.618 88.929 Q 70.024 87.777 72.134 87.152 L 72.134 87.152 L 72.134 87.152 Q 68.501 85.902 66.626 83.187 L 66.626 83.187 L 66.626 83.187 Q 64.751 80.472 64.751 76.41 L 64.751 76.41 L 64.751 76.41 Q 64.751 74.378 65.591 72.191 L 65.591 72.191 L 65.591 72.191 Q 66.43 70.003 68.442 68.187 L 68.442 68.187 L 68.442 68.187 Q 70.454 66.371 73.794 65.199 L 73.794 65.199 L 73.794 65.199 Q 77.134 64.027 82.134 64.027 L 82.134 64.027 L 82.134 64.027 Q 84.438 64.027 86.645 64.515 L 86.645 64.515 L 86.645 64.515 Q 88.852 65.003 90.805 65.726 L 90.805 65.726 L 90.805 65.726 Q 92.759 66.449 94.38 67.289 L 94.38 67.289 L 94.38 67.289 Q 96.001 68.128 97.173 68.832 L 97.173 68.832 L 97.173 68.832 Q 98.345 69.535 98.95 70.003 L 98.95 70.003 L 98.95 70.003 Q 99.555 70.472 99.516 70.433 L 99.516 70.433 L 99.516 70.433 Z " fill="rgb(34,36,38)"/></g></svg>