<?xml version="1.0" encoding="UTF-8" standalone="no"?><!-- Generator: Gravit.io --><svg xmlns="http://www.w3.org/2000/svg" xmlns:xlink="http://www.w3.org/1999/xlink" style="isolation:isolate" viewBox="4.124 142.723 100 142" width="100pt" height="142pt"><defs><clipPath id="_clipPath_NL9eozqUhKtxK6ueA99J2P1Cc3tv4FZ9"><rect x="4.124" y="142.723" width="100" height="142"/></clipPath></defs><g clip-path="url(#_clipPath_NL9eozqUhKtxK6ueA99J2P1Cc3tv4FZ9)"><path d=" M 14.124 142.723 L 74.124 142.723 L 104.124 172.723 L 104.124 274.723 C 104.124 280.242 99.643 284.723 94.124 284.723 L 14.124 284.723 C 8.605 284.723 4.124 280.242 4.124 274.723 L 4.124 152.723 C 4.124 147.204 8.605 142.723 14.124 142.723 Z " fill="rgb(255,136,0)"/><path d=" M 74.124 142.723 L 74.124 162.723 C 74.124 168.242 78.605 172.723 84.124 172.723 L 104.124 172.723 L 74.124 142.723 Z " fill="rgb(255,187,77)"/><path d=" M 52.401 217.415 L 52.401 217.415 L 52.401 217.415 Q 56.269 217.415 58.046 216.438 L 58.046 216.438 L 58.046 216.438 Q 59.823 215.462 59.823 213.587 L 59.823 213.587 L 59.823 213.587 Q 59.823 212.805 59.569 212.083 L 59.569 212.083 L 59.569 212.083 Q 59.315 211.36 58.534 210.794 L 58.534 210.794 L 58.534 210.794 Q 57.753 210.227 56.308 209.895 L 56.308 209.895 L 56.308 209.895 Q 54.862 209.563 52.44 209.563 L 52.44 209.563 L 52.44 209.563 Q 49.862 209.563 48.398 209.934 L 48.398 209.934 L 48.398 209.934 Q 46.933 210.305 46.23 210.872 L 46.23 210.872 L 46.23 210.872 Q 45.526 211.438 45.351 212.141 L 45.351 212.141 L 45.351 212.141 Q 45.175 212.844 45.175 213.508 L 45.175 213.508 L 45.175 213.508 Q 45.175 215.501 46.815 216.458 L 46.815 216.458 L 46.815 216.458 Q 48.456 217.415 52.401 217.415 Z  M 69.276 186.438 L 65.448 194.876 L 65.448 194.876 Q 65.409 194.876 64.843 194.524 L 64.843 194.524 L 64.843 194.524 Q 64.276 194.173 63.319 193.626 L 63.319 193.626 L 63.319 193.626 Q 62.362 193.079 61.073 192.473 L 61.073 192.473 L 61.073 192.473 Q 59.784 191.868 58.339 191.321 L 58.339 191.321 L 58.339 191.321 Q 56.894 190.774 55.351 190.423 L 55.351 190.423 L 55.351 190.423 Q 53.808 190.071 52.362 190.071 L 52.362 190.071 L 52.362 190.071 Q 49.784 190.071 48.339 190.383 L 48.339 190.383 L 48.339 190.383 Q 46.894 190.696 46.21 191.145 L 46.21 191.145 L 46.21 191.145 Q 45.526 191.594 45.39 192.122 L 45.39 192.122 L 45.39 192.122 Q 45.253 192.649 45.253 193.079 L 45.253 193.079 L 45.253 193.079 Q 45.253 193.391 45.312 193.801 L 45.312 193.801 L 45.312 193.801 Q 45.37 194.212 45.839 194.739 L 45.839 194.739 L 45.839 194.739 Q 46.308 195.266 47.362 195.891 L 47.362 195.891 L 47.362 195.891 Q 48.417 196.516 50.37 197.219 L 50.37 197.219 L 50.37 197.219 Q 55.058 198.821 58.417 200.188 L 58.417 200.188 L 58.417 200.188 Q 61.776 201.555 64.042 202.825 L 64.042 202.825 L 64.042 202.825 Q 66.308 204.094 67.636 205.325 L 67.636 205.325 L 67.636 205.325 Q 68.964 206.555 69.667 207.864 L 69.667 207.864 L 69.667 207.864 Q 70.37 209.173 70.565 210.637 L 70.565 210.637 L 70.565 210.637 Q 70.761 212.102 70.761 213.821 L 70.761 213.821 L 70.761 213.821 Q 70.761 215.305 70.312 216.79 L 70.312 216.79 L 70.312 216.79 Q 69.862 218.274 68.983 219.563 L 68.983 219.563 L 68.983 219.563 Q 68.105 220.852 66.737 221.848 L 66.737 221.848 L 66.737 221.848 Q 65.37 222.844 63.573 223.391 L 63.573 223.391 L 63.573 223.391 Q 65.683 224.329 67.089 225.618 L 67.089 225.618 L 67.089 225.618 Q 68.495 226.907 69.335 228.391 L 69.335 228.391 L 69.335 228.391 Q 70.175 229.876 70.507 231.438 L 70.507 231.438 L 70.507 231.438 Q 70.839 233.001 70.839 234.485 L 70.839 234.485 L 70.839 234.485 Q 70.839 237.454 70.019 239.622 L 70.019 239.622 L 70.019 239.622 Q 69.198 241.79 67.773 243.313 L 67.773 243.313 L 67.773 243.313 Q 66.347 244.837 64.452 245.794 L 64.452 245.794 L 64.452 245.794 Q 62.558 246.751 60.429 247.278 L 60.429 247.278 L 60.429 247.278 Q 58.3 247.805 56.054 248.001 L 56.054 248.001 L 56.054 248.001 Q 53.808 248.196 51.698 248.196 L 51.698 248.196 L 51.698 248.196 Q 49.55 248.196 47.447 247.592 L 47.447 247.592 L 47.447 247.592 Q 45.344 246.988 43.365 246.42 L 43.365 246.42 L 43.365 246.42 Q 41.386 245.852 39.726 245.012 L 39.726 245.012 L 39.726 245.012 Q 38.065 244.173 36.855 243.489 L 36.855 243.489 L 36.855 243.489 Q 35.644 242.805 34.98 242.356 L 34.98 242.356 L 34.98 242.356 Q 34.315 241.907 34.355 241.946 L 34.355 241.946 L 38.339 232.923 L 38.339 232.923 Q 38.378 232.923 38.944 233.313 L 38.944 233.313 L 38.944 233.313 Q 39.511 233.704 40.468 234.309 L 40.468 234.309 L 40.468 234.309 Q 41.425 234.915 42.694 235.598 L 42.694 235.598 L 42.694 235.598 Q 43.964 236.282 45.446 236.779 L 45.446 236.779 L 45.446 236.779 Q 46.927 237.276 48.414 237.775 L 48.414 237.775 L 48.414 237.775 Q 49.901 238.274 51.347 238.274 L 51.347 238.274 L 51.347 238.274 Q 59.55 238.274 59.55 233.587 L 59.55 233.587 L 59.55 233.587 Q 59.55 232.571 59.257 231.848 L 59.257 231.848 L 59.257 231.848 Q 58.964 231.126 58.3 230.54 L 58.3 230.54 L 58.3 230.54 Q 57.636 229.954 56.503 229.465 L 56.503 229.465 L 56.503 229.465 Q 55.37 228.977 53.73 228.391 L 53.73 228.391 L 47.323 226.204 L 47.323 226.204 Q 43.222 224.798 40.702 223.45 L 40.702 223.45 L 40.702 223.45 Q 38.183 222.102 36.815 220.54 L 36.815 220.54 L 36.815 220.54 Q 35.448 218.977 34.98 217.083 L 34.98 217.083 L 34.98 217.083 Q 34.511 215.188 34.511 212.688 L 34.511 212.688 L 34.511 212.688 Q 34.511 211.594 34.882 210.188 L 34.882 210.188 L 34.882 210.188 Q 35.253 208.782 36.112 207.434 L 36.112 207.434 L 36.112 207.434 Q 36.972 206.087 38.378 204.934 L 38.378 204.934 L 38.378 204.934 Q 39.784 203.782 41.894 203.157 L 41.894 203.157 L 41.894 203.157 Q 38.261 201.907 36.386 199.192 L 36.386 199.192 L 36.386 199.192 Q 34.511 196.477 34.511 192.415 L 34.511 192.415 L 34.511 192.415 Q 34.511 190.383 35.351 188.196 L 35.351 188.196 L 35.351 188.196 Q 36.19 186.008 38.202 184.192 L 38.202 184.192 L 38.202 184.192 Q 40.214 182.376 43.554 181.204 L 43.554 181.204 L 43.554 181.204 Q 46.894 180.032 51.894 180.032 L 51.894 180.032 L 51.894 180.032 Q 54.198 180.032 56.405 180.52 L 56.405 180.52 L 56.405 180.52 Q 58.612 181.008 60.565 181.731 L 60.565 181.731 L 60.565 181.731 Q 62.519 182.454 64.14 183.294 L 64.14 183.294 L 64.14 183.294 Q 65.761 184.133 66.933 184.837 L 66.933 184.837 L 66.933 184.837 Q 68.105 185.54 68.71 186.008 L 68.71 186.008 L 68.71 186.008 Q 69.315 186.477 69.276 186.438 L 69.276 186.438 L 69.276 186.438 Z " fill="rgb(255,255,255)"/></g></svg>