<?xml version="1.0" encoding="UTF-8" standalone="no"?><!-- Generator: Gravit.io --><svg xmlns="http://www.w3.org/2000/svg" xmlns:xlink="http://www.w3.org/1999/xlink" style="isolation:isolate" viewBox="-40.544 111.501 100 142" width="100pt" height="142pt"><defs><clipPath id="_clipPath_x1ocOiDl700u3l3gstjscvaeTKeSOmEU"><rect x="-40.544" y="111.501" width="100" height="142"/></clipPath></defs><g clip-path="url(#_clipPath_x1ocOiDl700u3l3gstjscvaeTKeSOmEU)"><rect x="-40.544" y="111.501" width="100" height="142" style="fill:rgb(13,13,13)" fill-opacity="0"/><path d=" M -30.544 111.501 L 29.456 111.501 L 59.456 141.501 L 59.456 243.501 C 59.456 249.021 54.975 253.501 49.456 253.501 L -30.544 253.501 C -36.064 253.501 -40.544 249.021 -40.544 243.501 L -40.544 121.501 C -40.544 115.982 -36.064 111.501 -30.544 111.501 Z " fill="rgb(255,255,255)"/><path d=" M 29.456 111.501 L 29.456 131.501 C 29.456 137.021 33.936 141.501 39.456 141.501 L 59.456 141.501 L 29.456 111.501 Z " fill="rgb(204,204,204)"/><path d=" M -6.378 171.742 L -6.378 171.742 L -6.378 171.742 Q -6.378 175.81 -9.001 177.98 L -9.001 177.98 L -9.001 177.98 Q -11.625 180.151 -16.717 180.151 L -16.717 180.151 L -16.717 180.151 Q -18.905 180.151 -20.742 179.732 L -20.742 179.732 L -20.742 179.732 Q -22.579 179.313 -23.946 178.8 L -23.946 178.8 L -23.946 178.8 Q -25.536 178.219 -26.852 177.45 L -26.852 177.45 L -25.416 172.716 L -25.416 172.716 Q -25.416 172.716 -24.955 172.904 L -24.955 172.904 L -24.955 172.904 Q -24.493 173.11 -23.75 173.392 L -23.75 173.392 L -23.75 173.392 Q -23.007 173.673 -22.041 174.007 L -22.041 174.007 L -22.041 174.007 Q -21.075 174.34 -20.067 174.622 L -20.067 174.622 L -20.067 174.622 Q -19.059 174.904 -18.093 175.092 L -18.093 175.092 L -18.093 175.092 Q -17.128 175.28 -16.342 175.28 L -16.342 175.28 L -16.342 175.28 Q -14.479 175.28 -13.573 174.75 L -13.573 174.75 L -13.573 174.75 Q -12.667 174.22 -12.667 172.904 L -12.667 172.904 L -12.667 172.904 Q -12.667 172.392 -12.778 171.947 L -12.778 171.947 L -12.778 171.947 Q -12.889 171.503 -13.146 171.11 L -13.146 171.11 L -13.146 171.11 Q -13.402 170.717 -13.838 170.392 L -13.838 170.392 L -13.838 170.392 Q -14.274 170.068 -14.94 169.777 L -14.94 169.777 L -22.015 166.786 L -22.015 166.786 Q -24.596 165.71 -25.895 163.821 L -25.895 163.821 L -25.895 163.821 Q -27.194 161.933 -27.194 159.267 L -27.194 159.267 L -27.194 159.267 Q -27.194 157.9 -26.766 156.78 L -26.766 156.78 L -26.766 156.78 Q -26.339 155.661 -25.596 154.781 L -25.596 154.781 L -25.596 154.781 Q -24.852 153.901 -23.853 153.26 L -23.853 153.26 L -23.853 153.26 Q -22.853 152.619 -21.699 152.192 L -21.699 152.192 L -21.699 152.192 Q -20.546 151.764 -19.298 151.559 L -19.298 151.559 L -19.298 151.559 Q -18.051 151.354 -16.82 151.354 L -16.82 151.354 L -16.82 151.354 Q -15.419 151.354 -14.154 151.525 L -14.154 151.525 L -14.154 151.525 Q -12.889 151.696 -11.827 152.009 L -11.827 152.009 L -11.827 152.009 Q -10.765 152.323 -9.887 152.582 L -9.887 152.582 L -9.887 152.582 Q -9.01 152.841 -8.403 153.106 L -8.403 153.106 L -8.403 153.106 Q -7.797 153.371 -7.472 153.542 L -7.472 153.542 L -7.164 153.713 L -8.737 158.139 L -9.044 158.002 L -9.044 158.002 Q -9.335 157.865 -9.847 157.652 L -9.847 157.652 L -9.847 157.652 Q -10.36 157.438 -11.078 157.221 L -11.078 157.221 L -11.078 157.221 Q -11.797 157.005 -12.608 156.76 L -12.608 156.76 L -12.608 156.76 Q -13.419 156.515 -14.325 156.379 L -14.325 156.379 L -14.325 156.379 Q -15.231 156.242 -16.136 156.242 L -16.136 156.242 L -16.136 156.242 Q -16.905 156.242 -17.769 156.31 L -17.769 156.31 L -17.769 156.31 Q -18.632 156.379 -19.358 156.635 L -19.358 156.635 L -19.358 156.635 Q -20.084 156.891 -20.563 157.387 L -20.563 157.387 L -20.563 157.387 Q -21.041 157.882 -21.041 158.737 L -21.041 158.737 L -21.041 158.737 Q -21.041 158.942 -21.016 159.19 L -21.016 159.19 L -21.016 159.19 Q -20.99 159.438 -20.802 159.72 L -20.802 159.72 L -20.802 159.72 Q -20.614 160.002 -20.204 160.309 L -20.204 160.309 L -20.204 160.309 Q -19.794 160.617 -19.025 160.924 L -19.025 160.924 L -12.667 163.488 L -12.667 163.488 Q -11.18 164.086 -10.01 164.872 L -10.01 164.872 L -10.01 164.872 Q -8.839 165.658 -8.027 166.667 L -8.027 166.667 L -8.027 166.667 Q -7.216 167.675 -6.797 168.931 L -6.797 168.931 L -6.797 168.931 Q -6.378 170.187 -6.378 171.742 Z  M 0.569 151.816 L 6.294 170.238 L 11.78 151.816 L 18.205 151.816 L 9.541 179.672 L 2.876 179.672 L -5.772 151.816 L 0.569 151.816 L 0.569 151.816 Z  M 37.081 174.477 L 37.081 168.153 L 30.843 168.153 L 30.843 164.052 L 43.045 164.052 L 43.045 179.672 L 38.602 179.672 L 37.764 177.587 L 37.764 177.587 Q 37.406 178.254 36.756 178.732 L 36.756 178.732 L 36.756 178.732 Q 36.107 179.211 35.261 179.527 L 35.261 179.527 L 35.261 179.527 Q 34.415 179.843 33.432 179.997 L 33.432 179.997 L 33.432 179.997 Q 32.449 180.151 31.407 180.151 L 31.407 180.151 L 31.407 180.151 Q 28.656 180.151 26.451 179.279 L 26.451 179.279 L 26.451 179.279 Q 24.246 178.407 22.7 176.656 L 22.7 176.656 L 22.7 176.656 Q 21.153 174.904 20.316 172.264 L 20.316 172.264 L 20.316 172.264 Q 19.478 169.623 19.478 166.103 L 19.478 166.103 L 19.478 166.103 Q 19.478 162.719 20.384 159.993 L 20.384 159.993 L 20.384 159.993 Q 21.29 157.267 23.042 155.345 L 23.042 155.345 L 23.042 155.345 Q 24.793 153.422 27.357 152.388 L 27.357 152.388 L 27.357 152.388 Q 29.92 151.354 33.236 151.354 L 33.236 151.354 L 33.236 151.354 Q 35.047 151.354 36.44 151.593 L 36.44 151.593 L 36.44 151.593 Q 37.833 151.833 38.814 152.279 L 38.814 152.279 L 38.814 152.279 Q 39.796 152.726 40.505 153.031 L 40.505 153.031 L 40.505 153.031 Q 41.214 153.337 41.627 153.559 L 41.627 153.559 L 39.679 158.088 L 39.679 158.088 Q 38.894 157.785 38.09 157.476 L 38.09 157.476 L 38.09 157.476 Q 37.287 157.166 36.509 156.866 L 36.509 156.866 L 36.509 156.866 Q 35.731 156.567 34.953 156.404 L 34.953 156.404 L 34.953 156.404 Q 34.176 156.242 33.407 156.242 L 33.407 156.242 L 33.407 156.242 Q 31.715 156.242 30.39 156.891 L 30.39 156.891 L 30.39 156.891 Q 29.066 157.541 28.151 158.797 L 28.151 158.797 L 28.151 158.797 Q 27.237 160.053 26.759 161.899 L 26.759 161.899 L 26.759 161.899 Q 26.28 163.744 26.28 166.154 L 26.28 166.154 L 26.28 166.154 Q 26.28 168.017 26.613 169.674 L 26.613 169.674 L 26.613 169.674 Q 26.947 171.332 27.647 172.571 L 27.647 172.571 L 27.647 172.571 Q 28.348 173.81 29.425 174.537 L 29.425 174.537 L 29.425 174.537 Q 30.501 175.263 31.971 175.263 L 31.971 175.263 L 31.971 175.263 Q 33.441 175.263 34.68 175.041 L 34.68 175.041 L 34.68 175.041 Q 35.919 174.819 37.081 174.477 L 37.081 174.477 L 37.081 174.477 Z " fill="rgb(34,36,38)"/><path d=" M 9.472 198.138 L 9.472 198.138 C 28.78 198.138 44.456 213.821 44.456 233.138 L 44.456 236.138 L 39.456 236.138 L 39.456 233.138 C 39.456 216.581 26.02 203.138 9.472 203.138 L 9.472 203.138 C -7.076 203.138 -20.512 216.581 -20.512 233.138 L -20.512 236.138 L -25.512 236.138 L -25.512 233.138 C -25.512 213.821 -9.836 198.138 9.472 198.138 Z " fill="rgb(34,36,38)"/><path d=" M -25.528 198.138 L 44.439 198.138 L 44.439 203.138 L -25.528 203.138 L -25.528 198.138 Z " fill="rgb(34,36,38)"/><path d=" M 1.956 192.638 L 16.956 192.638 L 16.956 207.638 L 1.956 207.638 L 1.956 192.638 Z " fill="rgb(34,36,38)"/><path d=" M 6.956 197.638 L 11.956 197.638 L 11.956 202.638 L 6.956 202.638 L 6.956 197.638 Z " fill="rgb(255,255,255)"/></g></svg>