<?xml version="1.0" encoding="UTF-8" standalone="no"?><!-- Generator: Gravit.io --><svg xmlns="http://www.w3.org/2000/svg" xmlns:xlink="http://www.w3.org/1999/xlink" style="isolation:isolate" viewBox="183.994 -10.046 100 142" width="100pt" height="142pt"><defs><clipPath id="_clipPath_EP48tOA5LHtAcf7jbaGFdU1yTT8nYi4d"><rect x="183.994" y="-10.046" width="100" height="142"/></clipPath></defs><g clip-path="url(#_clipPath_EP48tOA5LHtAcf7jbaGFdU1yTT8nYi4d)"><rect x="183.994" y="-10.046" width="100" height="142" style="fill:rgb(13,13,13)" fill-opacity="0"/><path d=" M 193.994 -10.046 L 253.994 -10.046 L 283.994 19.954 L 283.994 121.954 C 283.994 127.473 279.513 131.954 273.994 131.954 L 193.994 131.954 C 188.474 131.954 183.994 127.473 183.994 121.954 L 183.994 -0.046 C 183.994 -5.565 188.474 -10.046 193.994 -10.046 Z " fill="rgb(255,255,255)"/><path d=" M 253.994 -10.046 L 253.994 9.954 C 253.994 15.473 258.474 19.954 263.994 19.954 L 283.994 19.954 L 253.994 -10.046 Z " fill="rgb(204,204,204)"/><path d=" M 219.219 34.557 L 212.212 34.557 L 212.212 58.124 L 205.393 58.124 L 205.393 34.557 L 198.266 34.557 L 198.266 30.268 L 219.219 30.268 L 219.219 34.557 L 219.219 34.557 Z  M 232.994 39.035 L 238.223 30.268 L 245.298 30.268 L 236.561 44.244 L 245.298 58.124 L 238.086 58.124 L 232.988 49.96 L 227.884 58.124 L 220.689 58.124 L 229.455 44.197 L 220.689 30.268 L 227.764 30.268 L 232.994 39.035 L 232.994 39.035 Z  M 267.721 34.557 L 260.714 34.557 L 260.714 58.124 L 253.895 58.124 L 253.895 34.557 L 246.768 34.557 L 246.768 30.268 L 267.721 30.268 L 267.721 34.557 L 267.721 34.557 Z " fill="rgb(34,36,38)"/><path d=" M 199.026 76.59 L 268.994 76.59 L 268.994 84.59 L 199.026 84.59 L 199.026 76.59 Z " fill="rgb(34,36,38)"/><path d=" M 199.026 91.59 L 248.994 91.59 L 248.994 99.59 L 199.026 99.59 L 199.026 91.59 Z " fill="rgb(34,36,38)"/><path d=" M 199.026 106.59 L 238.994 106.59 L 238.994 114.59 L 199.026 114.59 L 199.026 106.59 Z " fill="rgb(34,36,38)"/></g></svg>